<?xml version="1.0" encoding="UTF-8" standalone="no"?>
<svg
   xmlns:dc="http://purl.org/dc/elements/1.1/"
   xmlns:cc="http://creativecommons.org/ns#"
   xmlns:rdf="http://www.w3.org/1999/02/22-rdf-syntax-ns#"
   xmlns:svg="http://www.w3.org/2000/svg"
   xmlns="http://www.w3.org/2000/svg"
   xmlns:sodipodi="http://sodipodi.sourceforge.net/DTD/sodipodi-0.dtd"
   xmlns:inkscape="http://www.inkscape.org/namespaces/inkscape"
   sodipodi:docname="logo Perles du berry V5.svg"
   inkscape:version="0.92.4 (5da689c313, 2019-01-14)"
   id="svg995"
   version="1.1"
   viewBox="0 0 26.800362 26.800362"
   height="26.800362mm"
   width="26.800362mm">
  <defs
     id="defs989" />
  <sodipodi:namedview
     inkscape:window-maximized="1"
     inkscape:window-y="25"
     inkscape:window-x="1920"
     inkscape:window-height="1025"
     inkscape:window-width="1920"
     showgrid="false"
     inkscape:document-rotation="0"
     inkscape:current-layer="g3730"
     inkscape:document-units="mm"
     inkscape:cy="-74.31212"
     inkscape:cx="19.534882"
     inkscape:zoom="1.76"
     inkscape:pageshadow="2"
     inkscape:pageopacity="0.0"
     borderopacity="1.0"
     bordercolor="#666666"
     pagecolor="#ffffff"
     id="base" />
  <metadata
     id="metadata992">
    <rdf:RDF>
      <cc:Work
         rdf:about="">
        <dc:format>image/svg+xml</dc:format>
        <dc:type
           rdf:resource="http://purl.org/dc/dcmitype/StillImage" />
        <dc:title></dc:title>
      </cc:Work>
    </rdf:RDF>
  </metadata>
  <g
     id="layer1"
     inkscape:groupmode="layer"
     inkscape:label="Calque 1"
     transform="translate(-103.22537,-141.90848)">
    <g
       id="g3730"
       transform="matrix(0.94672233,0,0,0.94672233,2.8865413,7.6713759)">
      <text
         xml:space="preserve"
         style="font-style:normal;font-weight:normal;font-size:3.93157434px;line-height:1.25;font-family:sans-serif;fill:#000000;fill-opacity:1;stroke:none;stroke-width:0.21061932"
         x="67.566917"
         y="139.10291"
         id="text2926-6-0"><tspan
           sodipodi:role="line"
           x="67.566917"
           y="142.58142"
           id="tspan2930-2-3"
           style="font-style:normal;font-variant:normal;font-stretch:normal;font-size:4.23333311px;font-family:LaurenScript;-inkscape-font-specification:'LaurenScript,  weight=101';font-variant-ligatures:normal;font-variant-caps:normal;font-variant-numeric:normal;font-feature-settings:normal;text-align:start;writing-mode:lr-tb;text-anchor:start;stroke-width:0.21061932" /></text>
      <g
         transform="matrix(1.0562759,0,0,1.0562759,114.37558,-389.4327)"
         id="g98">
        <g
           style="fill:#5d0000;fill-opacity:1;stroke:#0d0701;stroke-width:0.06;stroke-miterlimit:4;stroke-dasharray:none;stroke-opacity:1"
           transform="matrix(0.90599294,0,0,0.90599294,-63.031662,388.24796)"
           id="layer1-6-6-8-8"
           inkscape:label="Calque 1">
          <path
             id="path1443-1-4-7-7"
             style="fill:#000000;stroke-width:0.212455;stroke-opacity:0.977778"
             d="m 75.581802,128.13393 a 13.229167,13.229167 0 0 0 -0.157613,0.001 13.229167,13.229167 0 0 0 -0.157096,0.003 13.229167,13.229167 0 0 0 -0.157613,0.005 13.229167,13.229167 0 0 0 -0.157097,0.007 13.229167,13.229167 0 0 0 -0.157096,0.009 13.229167,13.229167 0 0 0 -0.15658,0.0103 13.229167,13.229167 0 0 0 -0.157096,0.0124 13.229167,13.229167 0 0 0 -0.15658,0.0139 13.229167,13.229167 0 0 0 -0.156579,0.016 13.229167,13.229167 0 0 0 -0.156063,0.0181 13.229167,13.229167 0 0 0 -0.156063,0.0196 13.229167,13.229167 0 0 0 -0.156063,0.0217 13.229167,13.229167 0 0 0 -0.155546,0.0233 13.229167,13.229167 0 0 0 -0.155546,0.0253 13.229167,13.229167 0 0 0 -0.154512,0.0274 13.229167,13.229167 0 0 0 -0.15503,0.0289 13.229167,13.229167 0 0 0 -0.153995,0.031 13.229167,13.229167 0 0 0 -0.153996,0.0326 13.229167,13.229167 0 0 0 -0.153479,0.0346 13.229167,13.229167 0 0 0 -0.152962,0.0362 13.229167,13.229167 0 0 0 -0.152963,0.0382 13.229167,13.229167 0 0 0 -0.151928,0.0398 13.229167,13.229167 0 0 0 -0.151412,0.0419 13.229167,13.229167 0 0 0 -0.151412,0.0434 13.229167,13.229167 0 0 0 -0.150895,0.0455 13.229167,13.229167 0 0 0 -0.149862,0.047 13.229167,13.229167 0 0 0 -0.149345,0.0491 13.229167,13.229167 0 0 0 -0.149345,0.0506 13.229167,13.229167 0 0 0 -0.148311,0.0522 13.229167,13.229167 0 0 0 -0.147278,0.0543 13.229167,13.229167 0 0 0 -0.147278,0.0563 13.229167,13.229167 0 0 0 -0.146244,0.0574 13.229167,13.229167 0 0 0 -0.145728,0.0594 13.229167,13.229167 0 0 0 -0.144694,0.0615 13.229167,13.229167 0 0 0 -0.144177,0.0625 13.229167,13.229167 0 0 0 -0.14366,0.0646 13.229167,13.229167 0 0 0 -0.142627,0.0667 13.229167,13.229167 0 0 0 -0.142111,0.0677 13.229167,13.229167 0 0 0 -0.141076,0.0698 13.229167,13.229167 0 0 0 -0.140043,0.0713 13.229167,13.229167 0 0 0 -0.139527,0.0734 13.229167,13.229167 0 0 0 -0.137976,0.0744 13.229167,13.229167 0 0 0 -0.137976,0.0765 13.229167,13.229167 0 0 0 -0.136426,0.078 13.229167,13.229167 0 0 0 -0.135909,0.0796 13.229167,13.229167 0 0 0 -0.134875,0.0811 13.229167,13.229167 0 0 0 -0.133325,0.0827 13.229167,13.229167 0 0 0 -0.132809,0.0842 13.229167,13.229167 0 0 0 -0.131775,0.0858 13.229167,13.229167 0 0 0 -0.130741,0.0878 13.229167,13.229167 0 0 0 -0.129708,0.0889 13.229167,13.229167 0 0 0 -0.128674,0.0904 13.229167,13.229167 0 0 0 -0.127641,0.092 13.229167,13.229167 0 0 0 -0.126607,0.0941 13.229167,13.229167 0 0 0 -0.125057,0.0951 13.229167,13.229167 0 0 0 -0.12454,0.0966 13.229167,13.229167 0 0 0 -0.12299,0.0977 13.229167,13.229167 0 0 0 -0.121957,0.0997 13.229167,13.229167 0 0 0 -0.120406,0.10077 13.229167,13.229167 0 0 0 -0.119373,0.10232 13.229167,13.229167 0 0 0 -0.118338,0.10387 13.229167,13.229167 0 0 0 -0.116789,0.10542 13.229167,13.229167 0 0 0 -0.115755,0.10645 13.229167,13.229167 0 0 0 -0.114722,0.10801 13.229167,13.229167 0 0 0 -0.113172,0.10903 13.229167,13.229167 0 0 0 -0.111621,0.11059 13.229167,13.229167 0 0 0 -0.110587,0.11214 13.229167,13.229167 0 0 0 -0.109037,0.11317 13.229167,13.229167 0 0 0 -0.108004,0.11472 13.229167,13.229167 0 0 0 -0.106454,0.11576 13.229167,13.229167 0 0 0 -0.104903,0.1173 13.229167,13.229167 0 0 0 -0.103869,0.11834 13.229167,13.229167 0 0 0 -0.10232,0.11937 13.229167,13.229167 0 0 0 -0.100769,0.12093 13.229167,13.229167 0 0 0 -0.09922,0.12195 13.229167,13.229167 0 0 0 -0.09819,0.123 13.229167,13.229167 0 0 0 -0.09612,0.12402 13.229167,13.229167 0 0 0 -0.09508,0.12557 13.229167,13.229167 0 0 0 -0.09354,0.12661 13.229167,13.229167 0 0 0 -0.09198,0.12764 13.229167,13.229167 0 0 0 -0.09043,0.12867 13.229167,13.229167 0 0 0 -0.08888,0.12971 13.229167,13.229167 0 0 0 -0.08733,0.13126 13.229167,13.229167 0 0 0 -0.08578,0.13178 13.229167,13.229167 0 0 0 -0.08423,0.1328 13.229167,13.229167 0 0 0 -0.08268,0.13385 13.229167,13.229167 0 0 0 -0.08113,0.13487 13.229167,13.229167 0 0 0 -0.07906,0.13591 13.229167,13.229167 0 0 0 -0.07803,0.13643 13.229167,13.229167 0 0 0 -0.07597,0.13797 13.229167,13.229167 0 0 0 -0.07493,0.13849 13.229167,13.229167 0 0 0 -0.07286,0.13953 13.229167,13.229167 0 0 0 -0.0708,0.14004 13.229167,13.229167 0 0 0 -0.06976,0.14108 13.229167,13.229167 0 0 0 -0.0677,0.14211 13.229167,13.229167 0 0 0 -0.06615,0.14263 13.229167,13.229167 0 0 0 -0.0646,0.14366 13.229167,13.229167 0 0 0 -0.06253,0.14418 13.229167,13.229167 0 0 0 -0.0615,0.14469 13.229167,13.229167 0 0 0 -0.05891,0.14573 13.229167,13.229167 0 0 0 -0.05788,0.14676 13.229167,13.229167 0 0 0 -0.05581,0.14676 13.229167,13.229167 0 0 0 -0.05374,0.14779 13.229167,13.229167 0 0 0 -0.05271,0.14831 13.229167,13.229167 0 0 0 -0.05013,0.14935 13.229167,13.229167 0 0 0 -0.04909,0.14935 13.229167,13.229167 0 0 0 -0.04703,0.15037 13.229167,13.229167 0 0 0 -0.04496,0.15038 13.229167,13.229167 0 0 0 -0.04341,0.15141 13.229167,13.229167 0 0 0 -0.04186,0.15142 13.229167,13.229167 0 0 0 -0.03979,0.15244 13.229167,13.229167 0 0 0 -0.03772,0.15245 13.229167,13.229167 0 0 0 -0.03617,0.15348 13.229167,13.229167 0 0 0 -0.03411,0.15348 13.229167,13.229167 0 0 0 -0.03256,0.15399 13.229167,13.229167 0 0 0 -0.03101,0.154 13.229167,13.229167 0 0 0 -0.02894,0.15503 13.229167,13.229167 0 0 0 -0.02687,0.15502 13.229167,13.229167 0 0 0 -0.0248,0.15503 13.229167,13.229167 0 0 0 -0.02325,0.15555 13.229167,13.229167 0 0 0 -0.0217,0.15606 13.229167,13.229167 0 0 0 -0.01964,0.15607 13.229167,13.229167 0 0 0 -0.01757,0.15606 13.229167,13.229167 0 0 0 -0.01602,0.15658 13.229167,13.229167 0 0 0 -0.01395,0.15658 13.229167,13.229167 0 0 0 -0.0124,0.15709 13.229167,13.229167 0 0 0 -0.0098,0.1571 13.229167,13.229167 0 0 0 -0.0088,0.1571 13.229167,13.229167 0 0 0 -0.0062,0.15709 13.229167,13.229167 0 0 0 -0.0046,0.1571 13.229167,13.229167 0 0 0 -0.0031,0.15761 13.229167,13.229167 0 0 0 -10e-4,0.1571 13.229167,13.229167 0 0 0 0,0.0139 13.229167,13.229167 0 0 0 10e-4,0.1571 13.229167,13.229167 0 0 0 0.0031,0.15709 13.229167,13.229167 0 0 0 0.0052,0.15762 13.229167,13.229167 0 0 0 0.0067,0.15709 13.229167,13.229167 0 0 0 0.0083,0.1571 13.229167,13.229167 0 0 0 0.01034,0.15709 13.229167,13.229167 0 0 0 0.0124,0.15659 13.229167,13.229167 0 0 0 0.01447,0.15657 13.229167,13.229167 0 0 0 0.01602,0.15658 13.229167,13.229167 0 0 0 0.01757,0.15658 13.229167,13.229167 0 0 0 0.01964,0.15607 13.229167,13.229167 0 0 0 0.0217,0.15554 13.229167,13.229167 0 0 0 0.02377,0.15555 13.229167,13.229167 0 0 0 0.02532,0.15554 13.229167,13.229167 0 0 0 0.02687,0.15503 13.229167,13.229167 0 0 0 0.02894,0.15451 13.229167,13.229167 0 0 0 0.03101,0.154 13.229167,13.229167 0 0 0 0.03256,0.154 13.229167,13.229167 0 0 0 0.03462,0.15348 13.229167,13.229167 0 0 0 0.03617,0.15296 13.229167,13.229167 0 0 0 0.03824,0.15296 13.229167,13.229167 0 0 0 0.03979,0.15193 13.229167,13.229167 0 0 0 0.04186,0.15193 13.229167,13.229167 0 0 0 0.04341,0.15089 13.229167,13.229167 0 0 0 0.04547,0.1509 13.229167,13.229167 0 0 0 0.04703,0.14986 13.229167,13.229167 0 0 0 0.04909,0.14986 13.229167,13.229167 0 0 0 0.05064,0.14883 13.229167,13.229167 0 0 0 0.05271,0.14831 13.229167,13.229167 0 0 0 0.05426,0.1478 13.229167,13.229167 0 0 0 0.05581,0.14676 13.229167,13.229167 0 0 0 0.05788,0.14624 13.229167,13.229167 0 0 0 0.05943,0.14573 13.229167,13.229167 0 0 0 0.06098,0.14521 13.229167,13.229167 0 0 0 0.06304,0.14418 13.229167,13.229167 0 0 0 0.0646,0.14314 13.229167,13.229167 0 0 0 0.06615,0.14263 13.229167,13.229167 0 0 0 0.06821,0.14211 13.229167,13.229167 0 0 0 0.06976,0.14107 13.229167,13.229167 0 0 0 0.07131,0.14005 13.229167,13.229167 0 0 0 0.07286,0.13952 13.229167,13.229167 0 0 0 0.07441,0.1385 13.229167,13.229167 0 0 0 0.07648,0.13746 13.229167,13.229167 0 0 0 0.07803,0.13642 13.229167,13.229167 0 0 0 0.07958,0.13591 13.229167,13.229167 0 0 0 0.08113,0.13487 13.229167,13.229167 0 0 0 0.08268,0.13385 13.229167,13.229167 0 0 0 0.08423,0.13281 13.229167,13.229167 0 0 0 0.0863,0.13177 13.229167,13.229167 0 0 0 0.08733,0.13074 13.229167,13.229167 0 0 0 0.08888,0.12971 13.229167,13.229167 0 0 0 0.09095,0.12868 13.229167,13.229167 0 0 0 0.09198,0.12712 13.229167,13.229167 0 0 0 0.09353,0.12661 13.229167,13.229167 0 0 0 0.09508,0.12557 13.229167,13.229167 0 0 0 0.09664,0.12402 13.229167,13.229167 0 0 0 0.09819,0.12299 13.229167,13.229167 0 0 0 0.09922,0.12196 13.229167,13.229167 0 0 0 0.101286,0.12041 13.229167,13.229167 0 0 0 0.102319,0.11937 13.229167,13.229167 0 0 0 0.103353,0.11834 13.229167,13.229167 0 0 0 0.10542,0.1173 13.229167,13.229167 0 0 0 0.106453,0.11524 13.229167,13.229167 0 0 0 0.108004,0.11472 13.229167,13.229167 0 0 0 0.109554,0.11317 13.229167,13.229167 0 0 0 0.110588,0.11163 13.229167,13.229167 0 0 0 0.111621,0.11058 13.229167,13.229167 0 0 0 0.113688,0.10904 13.229167,13.229167 0 0 0 0.114205,0.108 13.229167,13.229167 0 0 0 0.115755,0.10646 13.229167,13.229167 0 0 0 0.117306,0.1049 13.229167,13.229167 0 0 0 0.118339,0.10387 13.229167,13.229167 0 0 0 0.119372,0.10232 13.229167,13.229167 0 0 0 0.120923,0.10077 13.229167,13.229167 0 0 0 0.121957,0.0992 13.229167,13.229167 0 0 0 0.122989,0.0982 13.229167,13.229167 0 0 0 0.12454,0.0966 13.229167,13.229167 0 0 0 0.125574,0.0946 13.229167,13.229167 0 0 0 0.126091,0.0935 13.229167,13.229167 0 0 0 0.127641,0.092 13.229167,13.229167 0 0 0 0.128674,0.0904 13.229167,13.229167 0 0 0 0.130225,0.0889 13.229167,13.229167 0 0 0 0.130741,0.0873 13.229167,13.229167 0 0 0 0.131775,0.0858 13.229167,13.229167 0 0 0 0.132808,0.0842 13.229167,13.229167 0 0 0 0.133842,0.0827 13.229167,13.229167 0 0 0 0.134876,0.0811 13.229167,13.229167 0 0 0 0.135909,0.0796 13.229167,13.229167 0 0 0 0.136942,0.0775 13.229167,13.229167 0 0 0 0.13746,0.0765 13.229167,13.229167 0 0 0 0.138492,0.0744 13.229167,13.229167 0 0 0 0.139527,0.0729 13.229167,13.229167 0 0 0 0.140043,0.0713 13.229167,13.229167 0 0 0 0.141077,0.0693 13.229167,13.229167 0 0 0 0.14211,0.0682 13.229167,13.229167 0 0 0 0.142627,0.0662 13.229167,13.229167 0 0 0 0.14366,0.0641 13.229167,13.229167 0 0 0 0.144177,0.063 13.229167,13.229167 0 0 0 0.145211,0.061 13.229167,13.229167 0 0 0 0.145728,0.0594 13.229167,13.229167 0 0 0 0.146244,0.0574 13.229167,13.229167 0 0 0 0.0083,0.003 13.229167,13.229167 0 0 1 -2.185913,-7.28328 13.229167,13.229167 0 0 1 13.229167,-13.22916 13.229167,13.229167 0 0 1 4.759399,0.88573 13.229167,13.229167 0 0 0 -0.0052,-0.008 13.229167,13.229167 0 0 0 -0.08733,-0.13074 13.229167,13.229167 0 0 0 -0.0894,-0.12971 13.229167,13.229167 0 0 0 -0.09042,-0.12864 13.229167,13.229167 0 0 0 -0.09198,-0.12712 13.229167,13.229167 0 0 0 -0.09353,-0.12661 13.229167,13.229167 0 0 0 -0.09508,-0.12557 13.229167,13.229167 0 0 0 -0.09664,-0.12402 13.229167,13.229167 0 0 0 -0.09819,-0.12299 13.229167,13.229167 0 0 0 -0.09974,-0.12196 13.229167,13.229167 0 0 0 -0.100769,-0.12041 13.229167,13.229167 0 0 0 -0.102319,-0.11937 13.229167,13.229167 0 0 0 -0.10387,-0.11834 13.229167,13.229167 0 0 0 -0.104903,-0.11731 13.229167,13.229167 0 0 0 -0.10697,-0.11575 13.229167,13.229167 0 0 0 -0.108004,-0.11421 13.229167,13.229167 0 0 0 -0.109037,-0.11317 13.229167,13.229167 0 0 0 -0.110588,-0.11162 13.229167,13.229167 0 0 0 -0.112138,-0.11058 13.229167,13.229167 0 0 0 -0.113171,-0.10956 13.229167,13.229167 0 0 0 -0.114722,-0.10749 13.229167,13.229167 0 0 0 -0.115755,-0.10645 13.229167,13.229167 0 0 0 -0.116789,-0.10542 13.229167,13.229167 0 0 0 -0.118339,-0.10335 13.229167,13.229167 0 0 0 -0.119889,-0.10232 13.229167,13.229167 0 0 0 -0.120923,-0.10077 13.229167,13.229167 0 0 0 -0.12144,-0.0992 13.229167,13.229167 0 0 0 -0.123506,-0.0982 13.229167,13.229167 0 0 0 -0.124024,-0.0966 13.229167,13.229167 0 0 0 -0.125573,-0.0946 13.229167,13.229167 0 0 0 -0.126608,-0.0935 13.229167,13.229167 0 0 0 -0.127641,-0.092 13.229167,13.229167 0 0 0 -0.128674,-0.0904 13.229167,13.229167 0 0 0 -0.129708,-0.0889 13.229167,13.229167 0 0 0 -0.130741,-0.0873 13.229167,13.229167 0 0 0 -0.131775,-0.0858 13.229167,13.229167 0 0 0 -0.133325,-0.0842 13.229167,13.229167 0 0 0 -0.133842,-0.0827 13.229167,13.229167 0 0 0 -0.134876,-0.0811 13.229167,13.229167 0 0 0 -0.135392,-0.0796 13.229167,13.229167 0 0 0 -0.136942,-0.0775 13.229167,13.229167 0 0 0 -0.13746,-0.0765 13.229167,13.229167 0 0 0 -0.139009,-0.0744 13.229167,13.229167 0 0 0 -0.13901,-0.0729 13.229167,13.229167 0 0 0 -0.14056,-0.0713 13.229167,13.229167 0 0 0 -0.141076,-0.0693 13.229167,13.229167 0 0 0 -0.142111,-0.0682 13.229167,13.229167 0 0 0 -0.142626,-0.0661 13.229167,13.229167 0 0 0 -0.143144,-0.0641 13.229167,13.229167 0 0 0 -0.144694,-0.063 13.229167,13.229167 0 0 0 -0.144694,-0.061 13.229167,13.229167 0 0 0 -0.145728,-0.0594 13.229167,13.229167 0 0 0 -0.146244,-0.0574 13.229167,13.229167 0 0 0 -0.147278,-0.0558 13.229167,13.229167 0 0 0 -0.147795,-0.0543 13.229167,13.229167 0 0 0 -0.148311,-0.0522 13.229167,13.229167 0 0 0 -0.148828,-0.0506 13.229167,13.229167 0 0 0 -0.149862,-0.0486 13.229167,13.229167 0 0 0 -0.149861,-0.047 13.229167,13.229167 0 0 0 -0.150896,-0.045 13.229167,13.229167 0 0 0 -0.151411,-0.0434 13.229167,13.229167 0 0 0 -0.151412,-0.0419 13.229167,13.229167 0 0 0 -0.152446,-0.0398 13.229167,13.229167 0 0 0 -0.152445,-0.0377 13.229167,13.229167 0 0 0 -0.153479,-0.0362 13.229167,13.229167 0 0 0 -0.153479,-0.0346 13.229167,13.229167 0 0 0 -0.153479,-0.0326 13.229167,13.229167 0 0 0 -0.154513,-0.0305 13.229167,13.229167 0 0 0 -0.154512,-0.0289 13.229167,13.229167 0 0 0 -0.15503,-0.0269 13.229167,13.229167 0 0 0 -0.155546,-0.0253 13.229167,13.229167 0 0 0 -0.155546,-0.0233 13.229167,13.229167 0 0 0 -0.155546,-0.0212 13.229167,13.229167 0 0 0 -0.156579,-0.0196 13.229167,13.229167 0 0 0 -0.156063,-0.0181 13.229167,13.229167 0 0 0 -0.15658,-0.0155 13.229167,13.229167 0 0 0 -0.15658,-0.0139 13.229167,13.229167 0 0 0 -0.157096,-0.0124 13.229167,13.229167 0 0 0 -0.156579,-0.0103 13.229167,13.229167 0 0 0 -0.157097,-0.008 13.229167,13.229167 0 0 0 -0.157613,-0.007 13.229167,13.229167 0 0 0 -0.157096,-0.005 13.229167,13.229167 0 0 0 -0.157097,-0.003 13.229167,13.229167 0 0 0 -0.157613,-0.001 13.229167,13.229167 0 0 0 -0.01343,0 z"
             inkscape:connector-curvature="0" />
          <path
             id="path930-9-1-1"
             style="fill:#ffff00;stroke-width:0.212455;stroke-opacity:0.977778"
             d="m 75.568366,126.67872 a 14.684375,14.684375 0 0 0 -14.657503,14.68438 14.684375,14.684375 0 0 0 14.684375,14.68437 14.684375,14.684375 0 0 0 14.684375,-14.68437 14.684375,14.684375 0 0 0 -14.684375,-14.68438 14.684375,14.684375 0 0 0 -0.02687,0 z m 0.01344,1.45521 a 13.229167,13.229167 0 0 1 0.01343,0 13.229167,13.229167 0 0 1 0.157614,0.001 13.229167,13.229167 0 0 1 0.157096,0.003 13.229167,13.229167 0 0 1 0.157096,0.005 13.229167,13.229167 0 0 1 0.157614,0.007 13.229167,13.229167 0 0 1 0.157096,0.008 13.229167,13.229167 0 0 1 0.156579,0.0103 13.229167,13.229167 0 0 1 0.157097,0.0124 13.229167,13.229167 0 0 1 0.156579,0.0139 13.229167,13.229167 0 0 1 0.15658,0.0155 13.229167,13.229167 0 0 1 0.156063,0.0181 13.229167,13.229167 0 0 1 0.156579,0.0196 13.229167,13.229167 0 0 1 0.155546,0.0212 13.229167,13.229167 0 0 1 0.155546,0.0232 13.229167,13.229167 0 0 1 0.155547,0.0253 13.229167,13.229167 0 0 1 0.155029,0.0269 13.229167,13.229167 0 0 1 0.154512,0.0289 13.229167,13.229167 0 0 1 0.154513,0.0305 13.229167,13.229167 0 0 1 0.153479,0.0326 13.229167,13.229167 0 0 1 0.153479,0.0346 13.229167,13.229167 0 0 1 0.153479,0.0362 13.229167,13.229167 0 0 1 0.152445,0.0377 13.229167,13.229167 0 0 1 0.152446,0.0398 13.229167,13.229167 0 0 1 0.151412,0.0419 13.229167,13.229167 0 0 1 0.151412,0.0434 13.229167,13.229167 0 0 1 0.150895,0.045 13.229167,13.229167 0 0 1 0.149862,0.047 13.229167,13.229167 0 0 1 0.149861,0.0486 13.229167,13.229167 0 0 1 0.148828,0.0506 13.229167,13.229167 0 0 1 0.148312,0.0522 13.229167,13.229167 0 0 1 0.147794,0.0543 13.229167,13.229167 0 0 1 0.147278,0.0558 13.229167,13.229167 0 0 1 0.146245,0.0574 13.229167,13.229167 0 0 1 0.145727,0.0594 13.229167,13.229167 0 0 1 0.144694,0.061 13.229167,13.229167 0 0 1 0.144694,0.0631 13.229167,13.229167 0 0 1 0.143144,0.0641 13.229167,13.229167 0 0 1 0.142627,0.0661 13.229167,13.229167 0 0 1 0.14211,0.0682 13.229167,13.229167 0 0 1 0.141077,0.0693 13.229167,13.229167 0 0 1 0.14056,0.0713 13.229167,13.229167 0 0 1 0.139009,0.0729 13.229167,13.229167 0 0 1 0.13901,0.0744 13.229167,13.229167 0 0 1 0.137459,0.0765 13.229167,13.229167 0 0 1 0.136942,0.0775 13.229167,13.229167 0 0 1 0.135393,0.0796 13.229167,13.229167 0 0 1 0.134875,0.0811 13.229167,13.229167 0 0 1 0.133842,0.0827 13.229167,13.229167 0 0 1 0.133325,0.0842 13.229167,13.229167 0 0 1 0.131775,0.0858 13.229167,13.229167 0 0 1 0.130742,0.0873 13.229167,13.229167 0 0 1 0.129707,0.0889 13.229167,13.229167 0 0 1 0.128675,0.0904 13.229167,13.229167 0 0 1 0.127641,0.092 13.229167,13.229167 0 0 1 0.126607,0.0935 13.229167,13.229167 0 0 1 0.125574,0.0946 13.229167,13.229167 0 0 1 0.124023,0.0966 13.229167,13.229167 0 0 1 0.123507,0.0982 13.229167,13.229167 0 0 1 0.121439,0.0992 13.229167,13.229167 0 0 1 0.120923,0.10077 13.229167,13.229167 0 0 1 0.11989,0.10232 13.229167,13.229167 0 0 1 0.118338,0.10335 13.229167,13.229167 0 0 1 0.116789,0.10542 13.229167,13.229167 0 0 1 0.115756,0.10646 13.229167,13.229167 0 0 1 0.114721,0.10748 13.229167,13.229167 0 0 1 0.113172,0.10956 13.229167,13.229167 0 0 1 0.112137,0.11058 13.229167,13.229167 0 0 1 0.110588,0.11163 13.229167,13.229167 0 0 1 0.109037,0.11317 13.229167,13.229167 0 0 1 0.108004,0.1142 13.229167,13.229167 0 0 1 0.10697,0.11576 13.229167,13.229167 0 0 1 0.104903,0.1173 13.229167,13.229167 0 0 1 0.10387,0.11834 13.229167,13.229167 0 0 1 0.102319,0.11938 13.229167,13.229167 0 0 1 0.100769,0.1204 13.229167,13.229167 0 0 1 0.09974,0.12196 13.229167,13.229167 0 0 1 0.09819,0.12299 13.229167,13.229167 0 0 1 0.09663,0.12402 13.229167,13.229167 0 0 1 0.09509,0.12558 13.229167,13.229167 0 0 1 0.09353,0.1266 13.229167,13.229167 0 0 1 0.09198,0.12713 13.229167,13.229167 0 0 1 0.09043,0.12867 13.229167,13.229167 0 0 1 0.0894,0.12971 13.229167,13.229167 0 0 1 0.08733,0.13074 13.229167,13.229167 0 0 1 0.08578,0.13177 13.229167,13.229167 0 0 1 0.08423,0.13281 13.229167,13.229167 0 0 1 0.0832,0.13385 13.229167,13.229167 0 0 1 0.08113,0.13487 13.229167,13.229167 0 0 1 0.07958,0.13591 13.229167,13.229167 0 0 1 0.07751,0.13643 13.229167,13.229167 0 0 1 0.07648,0.13745 13.229167,13.229167 0 0 1 0.07493,0.1385 13.229167,13.229167 0 0 1 0.07286,0.13952 13.229167,13.229167 0 0 1 0.07131,0.14005 13.229167,13.229167 0 0 1 0.06976,0.14107 13.229167,13.229167 0 0 1 0.0677,0.14211 13.229167,13.229167 0 0 1 0.06666,0.14263 13.229167,13.229167 0 0 1 0.0646,0.14315 13.229167,13.229167 0 0 1 0.06304,0.14417 13.229167,13.229167 0 0 1 0.06098,0.14521 13.229167,13.229167 0 0 1 0.05943,0.14573 13.229167,13.229167 0 0 1 0.05788,0.14624 13.229167,13.229167 0 0 1 0.05581,0.14676 13.229167,13.229167 0 0 1 0.05426,0.1478 13.229167,13.229167 0 0 1 0.0522,0.14831 13.229167,13.229167 0 0 1 0.05116,0.14883 13.229167,13.229167 0 0 1 0.04857,0.14986 13.229167,13.229167 0 0 1 0.04703,0.14986 13.229167,13.229167 0 0 1 0.04548,0.1509 13.229167,13.229167 0 0 1 0.04341,0.15089 13.229167,13.229167 0 0 1 0.04186,0.15193 13.229167,13.229167 0 0 1 0.04031,0.15193 13.229167,13.229167 0 0 1 0.03772,0.15296 13.229167,13.229167 0 0 1 0.03669,0.15297 13.229167,13.229167 0 0 1 0.03411,0.15347 13.229167,13.229167 0 0 1 0.03307,0.154 13.229167,13.229167 0 0 1 0.03049,0.154 13.229167,13.229167 0 0 1 0.02894,0.15451 13.229167,13.229167 0 0 1 0.02739,0.15503 13.229167,13.229167 0 0 1 0.02532,0.15554 13.229167,13.229167 0 0 1 0.02326,0.15555 13.229167,13.229167 0 0 1 0.0217,0.15554 13.229167,13.229167 0 0 1 0.01963,0.15607 13.229167,13.229167 0 0 1 0.0181,0.15658 13.229167,13.229167 0 0 1 0.01603,0.15658 13.229167,13.229167 0 0 1 0.01394,0.15658 13.229167,13.229167 0 0 1 0.01241,0.15658 13.229167,13.229167 0 0 1 0.01035,0.15709 13.229167,13.229167 0 0 1 0.0088,0.1571 13.229167,13.229167 0 0 1 0.0067,0.15709 13.229167,13.229167 0 0 1 0.0047,0.1571 13.229167,13.229167 0 0 1 0.0031,0.15762 13.229167,13.229167 0 0 1 0.0011,0.15709 13.229167,13.229167 0 0 1 0,0.0139 13.229167,13.229167 0 0 1 -0.0011,0.1571 13.229167,13.229167 0 0 1 -0.0026,0.15761 13.229167,13.229167 0 0 1 -0.0047,0.1571 13.229167,13.229167 0 0 1 -0.0067,0.15709 13.229167,13.229167 0 0 1 -0.0083,0.1571 13.229167,13.229167 0 0 1 -0.01035,0.1571 13.229167,13.229167 0 0 1 -0.01188,0.15709 13.229167,13.229167 0 0 1 -0.01394,0.15658 13.229167,13.229167 0 0 1 -0.01603,0.15658 13.229167,13.229167 0 0 1 -0.0181,0.15607 13.229167,13.229167 0 0 1 -0.01913,0.15606 13.229167,13.229167 0 0 1 -0.0217,0.15606 13.229167,13.229167 0 0 1 -0.02326,0.15555 13.229167,13.229167 0 0 1 -0.02532,0.15503 13.229167,13.229167 0 0 1 -0.02687,0.15503 13.229167,13.229167 0 0 1 -0.02894,0.15503 13.229167,13.229167 0 0 1 -0.03049,0.15399 13.229167,13.229167 0 0 1 -0.03256,0.154 13.229167,13.229167 0 0 1 -0.03411,0.15348 13.229167,13.229167 0 0 1 -0.03617,0.15296 13.229167,13.229167 0 0 1 -0.03823,0.15286 13.229167,13.229167 0 0 1 -0.03979,0.15193 13.229167,13.229167 0 0 1 -0.04134,0.15193 13.229167,13.229167 0 0 1 -0.04341,0.15142 13.229167,13.229167 0 0 1 -0.04548,0.15037 13.229167,13.229167 0 0 1 -0.04702,0.15038 13.229167,13.229167 0 0 1 -0.04858,0.14935 13.229167,13.229167 0 0 1 -0.05064,0.14934 13.229167,13.229167 0 0 1 -0.05219,0.14831 13.229167,13.229167 0 0 1 -0.05426,0.1478 13.229167,13.229167 0 0 1 -0.05581,0.14676 13.229167,13.229167 0 0 1 -0.05736,0.14676 13.229167,13.229167 0 0 1 -0.05943,0.14521 13.229167,13.229167 0 0 1 -0.06098,0.14521 13.229167,13.229167 0 0 1 -0.06253,0.14418 13.229167,13.229167 0 0 1 -0.06459,0.14366 13.229167,13.229167 0 0 1 -0.06615,0.14263 13.229167,13.229167 0 0 1 -0.0677,0.14211 13.229167,13.229167 0 0 1 -0.06976,0.14107 13.229167,13.229167 0 0 1 -0.07131,0.14005 13.229167,13.229167 0 0 1 -0.07286,0.13952 13.229167,13.229167 0 0 1 -0.07441,0.1385 13.229167,13.229167 0 0 1 -0.07597,0.13797 13.229167,13.229167 0 0 1 -0.07803,0.13643 13.229167,13.229167 0 0 1 -0.07958,0.13591 13.229167,13.229167 0 0 1 -0.08113,0.13487 13.229167,13.229167 0 0 1 -0.08216,0.13384 13.229167,13.229167 0 0 1 -0.08423,0.13281 13.229167,13.229167 0 0 1 -0.08578,0.13178 13.229167,13.229167 0 0 1 -0.08733,0.13126 13.229167,13.229167 0 0 1 -0.08888,0.1297 13.229167,13.229167 0 0 1 -0.09043,0.12868 13.229167,13.229167 0 0 1 -0.09198,0.12764 13.229167,13.229167 0 0 1 -0.09353,0.12661 13.229167,13.229167 0 0 1 -0.09509,0.12505 13.229167,13.229167 0 0 1 -0.09663,0.12454 13.229167,13.229167 0 0 1 -0.09767,0.12299 13.229167,13.229167 0 0 1 -0.09973,0.12196 13.229167,13.229167 0 0 1 -0.100769,0.12092 13.229167,13.229167 0 0 1 -0.102319,0.11937 13.229167,13.229167 0 0 1 -0.103353,0.11834 13.229167,13.229167 0 0 1 -0.10542,0.11731 13.229167,13.229167 0 0 1 -0.106454,0.11575 13.229167,13.229167 0 0 1 -0.107487,0.11473 13.229167,13.229167 0 0 1 -0.109037,0.11317 13.229167,13.229167 0 0 1 -0.110588,0.11162 13.229167,13.229167 0 0 1 -0.112137,0.1111 13.229167,13.229167 0 0 1 -0.113172,0.10904 13.229167,13.229167 0 0 1 -0.114205,0.108 13.229167,13.229167 0 0 1 -0.115755,0.10646 13.229167,13.229167 0 0 1 -0.117305,0.10542 13.229167,13.229167 0 0 1 -0.117823,0.10387 13.229167,13.229167 0 0 1 -0.119372,0.10232 13.229167,13.229167 0 0 1 -0.120923,0.10076 13.229167,13.229167 0 0 1 -0.121956,0.0997 13.229167,13.229167 0 0 1 -0.12299,0.0977 13.229167,13.229167 0 0 1 -0.124024,0.0966 13.229167,13.229167 0 0 1 -0.125574,0.0951 13.229167,13.229167 0 0 1 -0.12609,0.0935 13.229167,13.229167 0 0 1 -0.127641,0.0925 13.229167,13.229167 0 0 1 -0.128674,0.0904 13.229167,13.229167 0 0 1 -0.129708,0.0889 13.229167,13.229167 0 0 1 -0.130741,0.0879 13.229167,13.229167 0 0 1 -0.131775,0.0858 13.229167,13.229167 0 0 1 -0.132809,0.0842 13.229167,13.229167 0 0 1 -0.133842,0.0827 13.229167,13.229167 0 0 1 -0.134875,0.0811 13.229167,13.229167 0 0 1 -0.135392,0.0796 13.229167,13.229167 0 0 1 -0.136943,0.078 13.229167,13.229167 0 0 1 -0.137459,0.0765 13.229167,13.229167 0 0 1 -0.138493,0.0744 13.229167,13.229167 0 0 1 -0.139526,0.0734 13.229167,13.229167 0 0 1 -0.140043,0.0713 13.229167,13.229167 0 0 1 -0.141077,0.0698 13.229167,13.229167 0 0 1 -0.141594,0.0677 13.229167,13.229167 0 0 1 -0.142627,0.0662 13.229167,13.229167 0 0 1 -0.14366,0.0646 13.229167,13.229167 0 0 1 -0.144177,0.063 13.229167,13.229167 0 0 1 -0.145211,0.0615 13.229167,13.229167 0 0 1 -0.145211,0.0594 13.229167,13.229167 0 0 1 -0.146761,0.0574 13.229167,13.229167 0 0 1 -0.146761,0.0563 13.229167,13.229167 0 0 1 -0.147795,0.0543 13.229167,13.229167 0 0 1 -0.148311,0.0522 13.229167,13.229167 0 0 1 -0.148828,0.0506 13.229167,13.229167 0 0 1 -0.149345,0.0491 13.229167,13.229167 0 0 1 -0.150378,0.047 13.229167,13.229167 0 0 1 -0.150379,0.0455 13.229167,13.229167 0 0 1 -0.151412,0.0434 13.229167,13.229167 0 0 1 -0.151412,0.0419 13.229167,13.229167 0 0 1 -0.152445,0.0398 13.229167,13.229167 0 0 1 -0.152446,0.0382 13.229167,13.229167 0 0 1 -0.152962,0.0362 13.229167,13.229167 0 0 1 -0.153996,0.0346 13.229167,13.229167 0 0 1 -0.153479,0.0325 13.229167,13.229167 0 0 1 -0.154512,0.031 13.229167,13.229167 0 0 1 -0.154513,0.0289 13.229167,13.229167 0 0 1 -0.155029,0.0274 13.229167,13.229167 0 0 1 -0.155029,0.0253 13.229167,13.229167 0 0 1 -0.155546,0.0233 13.229167,13.229167 0 0 1 -0.156063,0.0217 13.229167,13.229167 0 0 1 -0.156063,0.0196 13.229167,13.229167 0 0 1 -0.156063,0.0181 13.229167,13.229167 0 0 1 -0.156579,0.016 13.229167,13.229167 0 0 1 -0.157097,0.0139 13.229167,13.229167 0 0 1 -0.156579,0.0124 13.229167,13.229167 0 0 1 -0.157097,0.0103 13.229167,13.229167 0 0 1 -0.157096,0.009 13.229167,13.229167 0 0 1 -0.157096,0.007 13.229167,13.229167 0 0 1 -0.157097,0.005 13.229167,13.229167 0 0 1 -0.157613,0.003 13.229167,13.229167 0 0 1 -0.157096,0.001 13.229167,13.229167 0 0 1 -0.01395,0 13.229167,13.229167 0 0 1 -0.157096,-0.001 13.229167,13.229167 0 0 1 -0.157613,-0.003 13.229167,13.229167 0 0 1 -0.157096,-0.005 13.229167,13.229167 0 0 1 -0.157097,-0.007 13.229167,13.229167 0 0 1 -0.157096,-0.008 13.229167,13.229167 0 0 1 -0.157097,-0.0103 13.229167,13.229167 0 0 1 -0.156579,-0.0124 13.229167,13.229167 0 0 1 -0.157096,-0.0139 13.229167,13.229167 0 0 1 -0.156063,-0.016 13.229167,13.229167 0 0 1 -0.15658,-0.0176 13.229167,13.229167 0 0 1 -0.156063,-0.0196 13.229167,13.229167 0 0 1 -0.156063,-0.0212 13.229167,13.229167 0 0 1 -0.155546,-0.0233 13.229167,13.229167 0 0 1 -0.155029,-0.0253 13.229167,13.229167 0 0 1 -0.155029,-0.0269 13.229167,13.229167 0 0 1 -0.154513,-0.0289 13.229167,13.229167 0 0 1 -0.154512,-0.0305 13.229167,13.229167 0 0 1 -0.153996,-0.0325 13.229167,13.229167 0 0 1 -0.153479,-0.0346 13.229167,13.229167 0 0 1 -0.152962,-0.0362 13.229167,13.229167 0 0 1 -0.152963,-0.0377 13.229167,13.229167 0 0 1 -0.151928,-0.0398 13.229167,13.229167 0 0 1 -0.151929,-0.0419 13.229167,13.229167 0 0 1 -0.150895,-0.0434 13.229167,13.229167 0 0 1 -0.150895,-0.045 13.229167,13.229167 0 0 1 -0.150379,-0.047 13.229167,13.229167 0 0 1 -0.149345,-0.0486 13.229167,13.229167 0 0 1 -0.148828,-0.0506 13.229167,13.229167 0 0 1 -0.148311,-0.0522 13.229167,13.229167 0 0 1 -0.147795,-0.0543 13.229167,13.229167 0 0 1 -0.147277,-0.0558 13.229167,13.229167 0 0 1 -0.146245,-0.0574 13.229167,13.229167 0 0 1 -0.145727,-0.0594 13.229167,13.229167 0 0 1 -0.145211,-0.061 13.229167,13.229167 0 0 1 -0.144177,-0.063 13.229167,13.229167 0 0 1 -0.143661,-0.0641 13.229167,13.229167 0 0 1 -0.142627,-0.0661 13.229167,13.229167 0 0 1 -0.14211,-0.0682 13.229167,13.229167 0 0 1 -0.141077,-0.0692 13.229167,13.229167 0 0 1 -0.140043,-0.0713 13.229167,13.229167 0 0 1 -0.139526,-0.0729 13.229167,13.229167 0 0 1 -0.138493,-0.0744 13.229167,13.229167 0 0 1 -0.137459,-0.0765 13.229167,13.229167 0 0 1 -0.136943,-0.0775 13.229167,13.229167 0 0 1 -0.135909,-0.0796 13.229167,13.229167 0 0 1 -0.134921,-0.0812 13.229167,13.229167 0 0 1 -0.133842,-0.0827 13.229167,13.229167 0 0 1 -0.132809,-0.0842 13.229167,13.229167 0 0 1 -0.131775,-0.0858 13.229167,13.229167 0 0 1 -0.130741,-0.0873 13.229167,13.229167 0 0 1 -0.130225,-0.0889 13.229167,13.229167 0 0 1 -0.128674,-0.0904 13.229167,13.229167 0 0 1 -0.127641,-0.092 13.229167,13.229167 0 0 1 -0.12609,-0.0935 13.229167,13.229167 0 0 1 -0.125574,-0.0946 13.229167,13.229167 0 0 1 -0.12454,-0.0966 13.229167,13.229167 0 0 1 -0.12299,-0.0982 13.229167,13.229167 0 0 1 -0.121956,-0.0992 13.229167,13.229167 0 0 1 -0.120923,-0.10077 13.229167,13.229167 0 0 1 -0.119373,-0.10232 13.229167,13.229167 0 0 1 -0.118339,-0.10387 13.229167,13.229167 0 0 1 -0.117305,-0.1049 13.229167,13.229167 0 0 1 -0.115755,-0.10646 13.229167,13.229167 0 0 1 -0.114205,-0.108 13.229167,13.229167 0 0 1 -0.113689,-0.10904 13.229167,13.229167 0 0 1 -0.111621,-0.11058 13.229167,13.229167 0 0 1 -0.110587,-0.11163 13.229167,13.229167 0 0 1 -0.109554,-0.11317 13.229167,13.229167 0 0 1 -0.108004,-0.11472 13.229167,13.229167 0 0 1 -0.106453,-0.11524 13.229167,13.229167 0 0 1 -0.10542,-0.1173 13.229167,13.229167 0 0 1 -0.103353,-0.11834 13.229167,13.229167 0 0 1 -0.10232,-0.11937 13.229167,13.229167 0 0 1 -0.101285,-0.12041 13.229167,13.229167 0 0 1 -0.09922,-0.12196 13.229167,13.229167 0 0 1 -0.09819,-0.12299 13.229167,13.229167 0 0 1 -0.09664,-0.12402 13.229167,13.229167 0 0 1 -0.09508,-0.12557 13.229167,13.229167 0 0 1 -0.09353,-0.12661 13.229167,13.229167 0 0 1 -0.09198,-0.12712 13.229167,13.229167 0 0 1 -0.09095,-0.12868 13.229167,13.229167 0 0 1 -0.08888,-0.12971 13.229167,13.229167 0 0 1 -0.08733,-0.13074 13.229167,13.229167 0 0 1 -0.0863,-0.13177 13.229167,13.229167 0 0 1 -0.08423,-0.13281 13.229167,13.229167 0 0 1 -0.08268,-0.13385 13.229167,13.229167 0 0 1 -0.08113,-0.13487 13.229167,13.229167 0 0 1 -0.07958,-0.13591 13.229167,13.229167 0 0 1 -0.07803,-0.13642 13.229167,13.229167 0 0 1 -0.07648,-0.13746 13.229167,13.229167 0 0 1 -0.07441,-0.1385 13.229167,13.229167 0 0 1 -0.07286,-0.13952 13.229167,13.229167 0 0 1 -0.07131,-0.14005 13.229167,13.229167 0 0 1 -0.06976,-0.14107 13.229167,13.229167 0 0 1 -0.06821,-0.14211 13.229167,13.229167 0 0 1 -0.06615,-0.14263 13.229167,13.229167 0 0 1 -0.0646,-0.14314 13.229167,13.229167 0 0 1 -0.06305,-0.14418 13.229167,13.229167 0 0 1 -0.06098,-0.14521 13.229167,13.229167 0 0 1 -0.05943,-0.14573 13.229167,13.229167 0 0 1 -0.05788,-0.14624 13.229167,13.229167 0 0 1 -0.05581,-0.14676 13.229167,13.229167 0 0 1 -0.05426,-0.1478 13.229167,13.229167 0 0 1 -0.05271,-0.14831 13.229167,13.229167 0 0 1 -0.05064,-0.14883 13.229167,13.229167 0 0 1 -0.04909,-0.14986 13.229167,13.229167 0 0 1 -0.04703,-0.14986 13.229167,13.229167 0 0 1 -0.04548,-0.1509 13.229167,13.229167 0 0 1 -0.04341,-0.15089 13.229167,13.229167 0 0 1 -0.04186,-0.15193 13.229167,13.229167 0 0 1 -0.03979,-0.15193 13.229167,13.229167 0 0 1 -0.03824,-0.15296 13.229167,13.229167 0 0 1 -0.03617,-0.15296 13.229167,13.229167 0 0 1 -0.03462,-0.15348 13.229167,13.229167 0 0 1 -0.03256,-0.154 13.229167,13.229167 0 0 1 -0.03101,-0.154 13.229167,13.229167 0 0 1 -0.02894,-0.15451 13.229167,13.229167 0 0 1 -0.02687,-0.15503 13.229167,13.229167 0 0 1 -0.02532,-0.15554 13.229167,13.229167 0 0 1 -0.02377,-0.15555 13.229167,13.229167 0 0 1 -0.0217,-0.15554 13.229167,13.229167 0 0 1 -0.01964,-0.15607 13.229167,13.229167 0 0 1 -0.01757,-0.15658 13.229167,13.229167 0 0 1 -0.01602,-0.15658 13.229167,13.229167 0 0 1 -0.01447,-0.15657 13.229167,13.229167 0 0 1 -0.0124,-0.15659 13.229167,13.229167 0 0 1 -0.01033,-0.15709 13.229167,13.229167 0 0 1 -0.0083,-0.1571 13.229167,13.229167 0 0 1 -0.0067,-0.15709 13.229167,13.229167 0 0 1 -0.0052,-0.15762 13.229167,13.229167 0 0 1 -0.0031,-0.15709 13.229167,13.229167 0 0 1 -10e-4,-0.1571 13.229167,13.229167 0 0 1 0,-0.0139 13.229167,13.229167 0 0 1 10e-4,-0.1571 13.229167,13.229167 0 0 1 0.0031,-0.15761 13.229167,13.229167 0 0 1 0.0046,-0.1571 13.229167,13.229167 0 0 1 0.0062,-0.15709 13.229167,13.229167 0 0 1 0.0088,-0.1571 13.229167,13.229167 0 0 1 0.0098,-0.1571 13.229167,13.229167 0 0 1 0.0124,-0.15709 13.229167,13.229167 0 0 1 0.01395,-0.15658 13.229167,13.229167 0 0 1 0.01602,-0.15658 13.229167,13.229167 0 0 1 0.01757,-0.15606 13.229167,13.229167 0 0 1 0.01964,-0.15607 13.229167,13.229167 0 0 1 0.0217,-0.15606 13.229167,13.229167 0 0 1 0.02325,-0.15555 13.229167,13.229167 0 0 1 0.02481,-0.15503 13.229167,13.229167 0 0 1 0.02687,-0.15502 13.229167,13.229167 0 0 1 0.02894,-0.15503 13.229167,13.229167 0 0 1 0.03101,-0.154 13.229167,13.229167 0 0 1 0.03256,-0.15399 13.229167,13.229167 0 0 1 0.03411,-0.15348 13.229167,13.229167 0 0 1 0.03617,-0.15348 13.229167,13.229167 0 0 1 0.03772,-0.15245 13.229167,13.229167 0 0 1 0.03979,-0.15244 13.229167,13.229167 0 0 1 0.04186,-0.15142 13.229167,13.229167 0 0 1 0.04341,-0.15141 13.229167,13.229167 0 0 1 0.04496,-0.15038 13.229167,13.229167 0 0 1 0.04702,-0.15037 13.229167,13.229167 0 0 1 0.04909,-0.14935 13.229167,13.229167 0 0 1 0.05013,-0.14935 13.229167,13.229167 0 0 1 0.05271,-0.14831 13.229167,13.229167 0 0 1 0.05374,-0.14779 13.229167,13.229167 0 0 1 0.05581,-0.14676 13.229167,13.229167 0 0 1 0.05789,-0.14677 13.229167,13.229167 0 0 1 0.05891,-0.14573 13.229167,13.229167 0 0 1 0.0615,-0.14469 13.229167,13.229167 0 0 1 0.06253,-0.14417 13.229167,13.229167 0 0 1 0.06459,-0.14367 13.229167,13.229167 0 0 1 0.06615,-0.14262 13.229167,13.229167 0 0 1 0.0677,-0.14211 13.229167,13.229167 0 0 1 0.06976,-0.14108 13.229167,13.229167 0 0 1 0.0708,-0.14004 13.229167,13.229167 0 0 1 0.07286,-0.13953 13.229167,13.229167 0 0 1 0.07493,-0.13849 13.229167,13.229167 0 0 1 0.07596,-0.13798 13.229167,13.229167 0 0 1 0.07803,-0.13642 13.229167,13.229167 0 0 1 0.07906,-0.13591 13.229167,13.229167 0 0 1 0.08113,-0.13488 13.229167,13.229167 0 0 1 0.08268,-0.13384 13.229167,13.229167 0 0 1 0.08423,-0.13281 13.229167,13.229167 0 0 1 0.08578,-0.13177 13.229167,13.229167 0 0 1 0.08733,-0.13126 13.229167,13.229167 0 0 1 0.08888,-0.12971 13.229167,13.229167 0 0 1 0.09043,-0.12868 13.229167,13.229167 0 0 1 0.09198,-0.12764 13.229167,13.229167 0 0 1 0.09353,-0.1266 13.229167,13.229167 0 0 1 0.09508,-0.12558 13.229167,13.229167 0 0 1 0.09612,-0.12402 13.229167,13.229167 0 0 1 0.09819,-0.12299 13.229167,13.229167 0 0 1 0.09922,-0.12196 13.229167,13.229167 0 0 1 0.100769,-0.12092 13.229167,13.229167 0 0 1 0.102319,-0.11937 13.229167,13.229167 0 0 1 0.10387,-0.11834 13.229167,13.229167 0 0 1 0.104903,-0.1173 13.229167,13.229167 0 0 1 0.106454,-0.11576 13.229167,13.229167 0 0 1 0.108003,-0.11472 13.229167,13.229167 0 0 1 0.109038,-0.11317 13.229167,13.229167 0 0 1 0.110587,-0.11214 13.229167,13.229167 0 0 1 0.111621,-0.11059 13.229167,13.229167 0 0 1 0.113172,-0.10904 13.229167,13.229167 0 0 1 0.114721,-0.108 13.229167,13.229167 0 0 1 0.115756,-0.10645 13.229167,13.229167 0 0 1 0.116788,-0.10542 13.229167,13.229167 0 0 1 0.118339,-0.10387 13.229167,13.229167 0 0 1 0.119373,-0.10232 13.229167,13.229167 0 0 1 0.120406,-0.10077 13.229167,13.229167 0 0 1 0.121956,-0.0997 13.229167,13.229167 0 0 1 0.12299,-0.0977 13.229167,13.229167 0 0 1 0.12454,-0.0966 13.229167,13.229167 0 0 1 0.125057,-0.0951 13.229167,13.229167 0 0 1 0.126608,-0.0941 13.229167,13.229167 0 0 1 0.127641,-0.092 13.229167,13.229167 0 0 1 0.128674,-0.0904 13.229167,13.229167 0 0 1 0.129705,-0.0888 13.229167,13.229167 0 0 1 0.130741,-0.0879 13.229167,13.229167 0 0 1 0.131775,-0.0858 13.229167,13.229167 0 0 1 0.132809,-0.0842 13.229167,13.229167 0 0 1 0.133325,-0.0827 13.229167,13.229167 0 0 1 0.134875,-0.0811 13.229167,13.229167 0 0 1 0.135909,-0.0796 13.229167,13.229167 0 0 1 0.136426,-0.078 13.229167,13.229167 0 0 1 0.137976,-0.0765 13.229167,13.229167 0 0 1 0.137976,-0.0744 13.229167,13.229167 0 0 1 0.139527,-0.0734 13.229167,13.229167 0 0 1 0.140043,-0.0713 13.229167,13.229167 0 0 1 0.141076,-0.0698 13.229167,13.229167 0 0 1 0.142111,-0.0677 13.229167,13.229167 0 0 1 0.142627,-0.0667 13.229167,13.229167 0 0 1 0.14366,-0.0646 13.229167,13.229167 0 0 1 0.144177,-0.0625 13.229167,13.229167 0 0 1 0.144694,-0.0615 13.229167,13.229167 0 0 1 0.145728,-0.0594 13.229167,13.229167 0 0 1 0.146244,-0.0573 13.229167,13.229167 0 0 1 0.147278,-0.0563 13.229167,13.229167 0 0 1 0.147278,-0.0543 13.229167,13.229167 0 0 1 0.148311,-0.0522 13.229167,13.229167 0 0 1 0.149345,-0.0506 13.229167,13.229167 0 0 1 0.149345,-0.0491 13.229167,13.229167 0 0 1 0.149862,-0.047 13.229167,13.229167 0 0 1 0.150895,-0.0455 13.229167,13.229167 0 0 1 0.151412,-0.0434 13.229167,13.229167 0 0 1 0.151412,-0.0419 13.229167,13.229167 0 0 1 0.151928,-0.0398 13.229167,13.229167 0 0 1 0.152963,-0.0382 13.229167,13.229167 0 0 1 0.152962,-0.0362 13.229167,13.229167 0 0 1 0.153479,-0.0346 13.229167,13.229167 0 0 1 0.153996,-0.0325 13.229167,13.229167 0 0 1 0.153995,-0.031 13.229167,13.229167 0 0 1 0.15503,-0.0289 13.229167,13.229167 0 0 1 0.154512,-0.0274 13.229167,13.229167 0 0 1 0.155546,-0.0253 13.229167,13.229167 0 0 1 0.155546,-0.0232 13.229167,13.229167 0 0 1 0.156063,-0.0217 13.229167,13.229167 0 0 1 0.156063,-0.0196 13.229167,13.229167 0 0 1 0.156063,-0.0181 13.229167,13.229167 0 0 1 0.156579,-0.016 13.229167,13.229167 0 0 1 0.15658,-0.0139 13.229167,13.229167 0 0 1 0.157096,-0.0124 13.229167,13.229167 0 0 1 0.15658,-0.0103 13.229167,13.229167 0 0 1 0.157096,-0.009 13.229167,13.229167 0 0 1 0.157097,-0.007 13.229167,13.229167 0 0 1 0.157613,-0.005 13.229167,13.229167 0 0 1 0.157096,-0.003 13.229167,13.229167 0 0 1 0.157613,-0.001 z"
             inkscape:connector-curvature="0" />
          <g
             id="g878-5-7-7"
             transform="matrix(0.26458333,0,0,0.26458333,112.85008,105.37624)">
            <circle
               cy="119.45059"
               cx="-144.3553"
               id="path1443-17-0-2-2"
               style="fill:#000000;stroke-width:0.55702102;stroke-opacity:0.977778"
               r="38.5" />
            <circle
               r="37.5"
               style="fill:#ffff00;stroke-width:0.54255301;stroke-opacity:0.977778"
               id="path1443-4-7-7"
               cx="-144.3553"
               cy="119.45059" />
            <circle
               cy="119.45059"
               cx="-144.3553"
               id="path1443-3-8-2-2"
               style="fill:#000000;stroke-width:0.506383;stroke-opacity:0.977778"
               r="35" />
          </g>
          <g
             id="g3730-7-2-2"
             transform="matrix(0.94672233,0,0,0.94672233,2.8865413,7.6713759)">
            <text
               id="text2926-62-1-6-6"
               y="134.43721"
               x="69.584541"
               style="font-style:normal;font-weight:normal;font-size:4.30045462px;line-height:1.25;font-family:sans-serif;fill:#000000;fill-opacity:1;stroke:none;stroke-width:0.23038068"
               xml:space="preserve"><tspan
                 id="tspan2930-5-7-1-1"
                 y="134.43721"
                 x="69.584541"
                 sodipodi:role="line"
                 style="font-style:normal;font-variant:normal;font-stretch:normal;font-size:4.30044508px;font-family:LaurenScript;-inkscape-font-specification:'LaurenScript,  weight=101';font-variant-ligatures:normal;font-variant-caps:normal;font-variant-numeric:normal;font-feature-settings:normal;text-align:start;writing-mode:lr-tb;text-anchor:start;stroke-width:0.23038068"><tspan
   style="font-style:normal;font-variant:normal;font-weight:normal;font-stretch:normal;font-size:4.30044508px;font-family:LaurenScript;-inkscape-font-specification:'LaurenScript,  weight=101';font-variant-ligatures:normal;font-variant-caps:normal;font-variant-numeric:normal;font-feature-settings:normal;text-align:start;writing-mode:lr-tb;text-anchor:start;fill:#ffff00;stroke-width:0.23038068"
   id="tspan2984-8-2-0-0">Perles</tspan> </tspan></text>
            <text
               xml:space="preserve"
               style="font-style:normal;font-weight:normal;font-size:3.93157434px;line-height:1.25;font-family:sans-serif;fill:#000000;fill-opacity:1;stroke:none;stroke-width:0.21061932"
               x="67.566917"
               y="139.10291"
               id="text2926-6-0-7-6-6"><tspan
                 sodipodi:role="line"
                 x="67.566917"
                 y="139.10291"
                 id="tspan2930-2-3-2-1-1"
                 style="font-style:normal;font-variant:normal;font-stretch:normal;font-size:4.23333311px;font-family:LaurenScript;-inkscape-font-specification:'LaurenScript,  weight=101';font-variant-ligatures:normal;font-variant-caps:normal;font-variant-numeric:normal;font-feature-settings:normal;text-align:start;writing-mode:lr-tb;text-anchor:start;stroke-width:0.21061932"><tspan
   id="tspan2984-3-6-2-5-5"
   style="font-style:normal;font-variant:normal;font-weight:normal;font-stretch:normal;font-size:4.23333311px;font-family:LaurenScript;-inkscape-font-specification:'LaurenScript,  weight=101';font-variant-ligatures:normal;font-variant-caps:normal;font-variant-numeric:normal;font-feature-settings:normal;text-align:start;writing-mode:lr-tb;text-anchor:start;fill:#ffff00;stroke-width:0.21061932"><tspan
   style="font-size:2.98104548px"
   id="tspan3732-6-9-9">du</tspan> Berry</tspan> </tspan></text>
            <g
               id="g852"
               transform="translate(-12.619289,3.9435278)">
              <flowRoot
                 transform="matrix(0.05780478,0,0,0.05780478,73.435614,93.852351)"
                 style="font-style:normal;font-variant:normal;font-weight:normal;font-stretch:normal;font-size:16px;line-height:125%;font-family:sans-serif;-inkscape-font-specification:'sans-serif, Normal';font-variant-ligatures:normal;font-variant-caps:normal;font-variant-numeric:normal;font-feature-settings:normal;text-align:start;letter-spacing:0px;word-spacing:0px;writing-mode:lr-tb;text-anchor:start;fill:#f0c800;fill-opacity:1;stroke:none;stroke-width:2.07742834;stroke-linecap:butt;stroke-linejoin:miter;stroke-miterlimit:4;stroke-dasharray:none;stroke-opacity:1"
                 id="flowRoot907-0-9-9"
                 xml:space="preserve"><flowRegion
                   style="fill:#f0c800;fill-opacity:1;stroke:none;stroke-width:2.07742834;stroke-miterlimit:4;stroke-dasharray:none;stroke-opacity:1"
                   id="flowRegion909-6-0-0"><rect
                     style="fill:#f0c800;fill-opacity:1;stroke:none;stroke-width:2.07742834;stroke-miterlimit:4;stroke-dasharray:none;stroke-opacity:1"
                     y="650.15125"
                     x="402.63159"
                     height="23.68421"
                     width="28.947369"
                     id="rect911-1-9-9" /></flowRegion><flowPara
                   id="flowPara913-5-1-1">R</flowPara></flowRoot>              <path
                 d="m 96.601502,131.23322 a 0.79695374,0.83664811 0 0 1 1.11044,0.19648 0.79695374,0.83664811 0 0 1 -0.185274,1.16609 0.79695374,0.83664811 0 0 1 -1.111071,-0.19252 0.79695374,0.83664811 0 0 1 0.181493,-1.16674"
                 sodipodi:open="true"
                 sodipodi:end="4.0880149"
                 sodipodi:start="4.0948217"
                 sodipodi:ry="0.83664811"
                 sodipodi:rx="0.79695374"
                 sodipodi:cy="131.91533"
                 sodipodi:cx="97.062981"
                 sodipodi:type="arc"
                 id="path915-9-7-7"
                 style="opacity:0.33800001;fill:none;fill-opacity:1;stroke:#f0c800;stroke-width:0.17488147;stroke-miterlimit:4;stroke-dasharray:none;stroke-opacity:1" />
            </g>
          </g>
        </g>
      </g>
      <flowRoot
         xml:space="preserve"
         id="flowRoot1300-7-7"
         style="font-style:normal;font-variant:normal;font-weight:normal;font-stretch:normal;font-size:16px;line-height:125%;font-family:sans-serif;-inkscape-font-specification:'sans-serif, Normal';font-variant-ligatures:normal;font-variant-caps:normal;font-variant-numeric:normal;font-feature-settings:normal;text-align:end;letter-spacing:0px;word-spacing:0px;writing-mode:lr-tb;text-anchor:end;fill:#000000;fill-opacity:1;stroke:none;stroke-width:0.09142809;stroke-linecap:butt;stroke-linejoin:miter;stroke-miterlimit:4;stroke-dasharray:none;stroke-opacity:1"
         transform="matrix(0.1155308,0,0,0.1155308,140.7654,134.27122)"><flowRegion
           id="flowRegion1302-1-1"
           style="text-align:end;text-anchor:end;stroke-width:0.09142809;stroke-miterlimit:4;stroke-dasharray:none"><rect
             id="rect1304-1-1"
             width="126.08695"
             height="52.536938"
             x="-251.30435"
             y="241.65012"
             style="text-align:end;text-anchor:end;stroke-width:0.09142809;stroke-miterlimit:4;stroke-dasharray:none" /></flowRegion><flowPara
           id="flowPara1306-5-5"
           style="font-style:normal;font-variant:normal;font-weight:normal;font-stretch:normal;font-size:19.35227585px;font-family:'Lie to Me';-inkscape-font-specification:'Lie to Me';stroke:none;stroke-width:0.09142809;stroke-miterlimit:4;stroke-dasharray:none;stroke-opacity:1">Truffement</flowPara><flowPara
           id="flowPara1308-9-9"
           style="font-style:normal;font-variant:normal;font-weight:normal;font-stretch:normal;font-size:19.35227585px;font-family:'Lie to Me';-inkscape-font-specification:'Lie to Me';stroke:none;stroke-width:0.09142809;stroke-miterlimit:4;stroke-dasharray:none;stroke-opacity:1">bon !</flowPara></flowRoot>    </g>
  </g>
</svg>
