<?xml version="1.0" encoding="UTF-8" standalone="no"?>
<svg
   xmlns:dc="http://purl.org/dc/elements/1.1/"
   xmlns:cc="http://creativecommons.org/ns#"
   xmlns:rdf="http://www.w3.org/1999/02/22-rdf-syntax-ns#"
   xmlns:svg="http://www.w3.org/2000/svg"
   xmlns="http://www.w3.org/2000/svg"
   xmlns:sodipodi="http://sodipodi.sourceforge.net/DTD/sodipodi-0.dtd"
   xmlns:inkscape="http://www.inkscape.org/namespaces/inkscape"
   sodipodi:docname="perles-berry-texte.svg"
   inkscape:version="0.92.3 (2405546, 2018-03-11)"
   id="svg995"
   version="1.1"
   viewBox="0 0 81.419955 16.641083"
   height="16.641083mm"
   width="81.419952mm"
   inkscape:export-filename="/home/stephe/Lys/Perles du Berry/Etiquettes Logo/LOGO PdB/logo/LOGO PDB V10.png"
   inkscape:export-xdpi="300"
   inkscape:export-ydpi="300">
  <defs
     id="defs989" />
  <sodipodi:namedview
     inkscape:window-maximized="1"
     inkscape:window-y="27"
     inkscape:window-x="67"
     inkscape:window-height="1025"
     inkscape:window-width="1853"
     showgrid="false"
     inkscape:document-rotation="0"
     inkscape:current-layer="g1935"
     inkscape:document-units="mm"
     inkscape:cy="44.299209"
     inkscape:cx="158.06036"
     inkscape:zoom="1.43"
     inkscape:pageshadow="2"
     inkscape:pageopacity="0.0"
     borderopacity="1.0"
     bordercolor="#666666"
     pagecolor="#ffffff"
     id="base"
     fit-margin-top="0"
     fit-margin-left="0"
     fit-margin-right="0"
     fit-margin-bottom="0"
     showguides="true"
     inkscape:guide-bbox="true">
    <sodipodi:guide
       position="36.738214,10.836255"
       orientation="0,1"
       id="guide2080"
       inkscape:locked="false" />
  </sodipodi:namedview>
  <metadata
     id="metadata992">
    <rdf:RDF>
      <cc:Work
         rdf:about="">
        <dc:format>image/svg+xml</dc:format>
        <dc:type
           rdf:resource="http://purl.org/dc/dcmitype/StillImage" />
        <dc:title></dc:title>
      </cc:Work>
    </rdf:RDF>
  </metadata>
  <g
     id="layer1"
     inkscape:groupmode="layer"
     inkscape:label="Calque 1"
     transform="translate(-49.376384,-121.36239)">
    <g
       id="g3730"
       transform="matrix(0.94672233,0,0,0.94672233,2.8865413,7.6713759)">
      <text
         xml:space="preserve"
         style="font-style:normal;font-weight:normal;font-size:3.93157434px;line-height:1.25;font-family:sans-serif;fill:#000000;fill-opacity:1;stroke:none;stroke-width:0.21061932"
         x="67.566917"
         y="139.10291"
         id="text2926-6-0"><tspan
           sodipodi:role="line"
           x="67.566917"
           y="142.58142"
           id="tspan2930-2-3"
           style="font-style:normal;font-variant:normal;font-stretch:normal;font-size:4.23333311px;font-family:LaurenScript;-inkscape-font-specification:'LaurenScript,  weight=101';font-variant-ligatures:normal;font-variant-caps:normal;font-variant-numeric:normal;font-feature-settings:normal;text-align:start;writing-mode:lr-tb;text-anchor:start;stroke-width:0.21061932" /></text>
      <g
         id="g1899"
         transform="matrix(1.1508392,0,0,1.1508392,26.851936,-30.168854)">
        <text
           id="text2926-62-1-6-6"
           y="159.15451"
           x="137.8038"
           style="font-style:normal;font-weight:normal;font-size:6.72721338px;line-height:1.25;font-family:sans-serif;fill:#000000;fill-opacity:1;stroke:none;stroke-width:0.36038515;stroke-miterlimit:4;stroke-dasharray:none;stroke-opacity:1"
           xml:space="preserve"><tspan
             id="tspan2930-5-7-1-1"
             y="165.10652"
             x="137.8038"
             sodipodi:role="line"
             style="font-style:normal;font-variant:normal;font-weight:normal;font-stretch:normal;font-size:6.97070456px;font-family:LaurenScript;-inkscape-font-specification:'LaurenScript, Normal';font-variant-ligatures:normal;font-variant-caps:normal;font-variant-numeric:normal;font-feature-settings:normal;text-align:start;writing-mode:lr-tb;text-anchor:start;stroke-width:0.36038515" /></text>
        <g
           id="g852"
           transform="matrix(1.6537838,0,0,1.6537838,30.049978,-64.184719)"
           style="fill:#5d0000;fill-opacity:1;stroke:#0d0701;stroke-width:0.06;stroke-miterlimit:4;stroke-dasharray:none;stroke-opacity:1" />
      </g>
      <g
         id="g1935"
         transform="translate(-79.346881,-26.188379)">
        <g
           id="g2043"
           transform="matrix(0.89994043,0,0,0.89994043,4.5865693,18.909696)">
          <g
             transform="matrix(1.1934631,0,0,1.1934631,50.336394,3.9291148)"
             id="text1833"
             style="font-style:normal;font-weight:normal;font-size:11.68147469px;line-height:5;font-family:sans-serif;text-align:center;letter-spacing:0px;word-spacing:0px;text-anchor:middle;fill:#000000;fill-opacity:1;stroke:none;stroke-width:0.01752221;stroke-miterlimit:4;stroke-dasharray:none;stroke-opacity:1"
             aria-label="Perles du Berry ">
            <g
               id="g2078">
              <path
                 d="m 82.320153,120.24768 q 0,0.86443 -0.829384,1.97417 -0.829385,1.10974 -1.518592,1.10974 h -0.735933 q -0.245311,0 -0.560711,-0.25699 -0.408851,-0.33876 -0.408851,-0.80602 0,-0.49062 0.198585,-0.72425 0.210266,-0.24532 0.607436,-0.24532 v 0.32709 q -0.186903,0.14017 -0.373807,0.28035 -0.03504,0.035 -0.03504,0.28036 0,0.3738 0.221948,0.51398 0.221948,0.14018 0.595755,0.14018 0.537348,0 1.004607,-0.59576 0.537348,-0.6892 0.537348,-1.68213 v -2.02089 q -0.175223,-0.36213 -0.338763,-0.73594 -0.467259,-0.84106 -1.098059,-1.36673 -0.887792,-0.73593 -1.974169,-0.73593 -1.098059,0 -2.161073,0.70089 -1.238236,0.8177 -1.238236,1.97417 0,0.42053 0.303718,0.74761 0.350444,0.38549 0.911155,0.38549 0.327081,0 0.373807,-0.0117 0.09345,-0.0234 0.350445,-0.23363 h 0.327081 v 0.40885 q -0.3154,0.4439 -0.724252,0.71257 -0.39717,0.25699 -0.899473,0.25699 -0.490622,0 -1.063014,-0.43221 -0.642481,-0.47894 -0.642481,-1.02797 v -0.72425 q 0,-0.95788 1.366732,-2.0209 1.460184,-1.14478 3.013821,-1.14478 h 0.817703 q 1.355051,0 2.61665,1.01629 1.355051,1.08637 1.355051,2.47647 z m -3.165679,-3.41099 q -0.04673,0 -0.292037,0.49062 -0.338763,0.70089 -0.54903,1.62373 -0.292036,1.32001 -0.292036,2.99046 v 0.73593 q -0.08177,0.56071 -0.15186,1.10974 -0.210266,1.34337 -0.432214,2.06762 -0.338763,1.12142 -0.71257,1.12142 h -0.817703 q -0.221948,0 -0.3154,-0.11681 -0.08177,-0.11682 -0.08177,-0.21027 0.186904,-0.52567 0.385489,-1.36673 0.408852,-1.68213 0.829385,-3.81984 0.233629,-1.17983 0.420533,-1.85736 0.350444,-1.23824 0.782659,-1.99753 0.549029,-0.95788 1.226555,-1.09806 z"
                 style="font-style:normal;font-variant:normal;font-weight:normal;font-stretch:normal;font-size:11.68147469px;font-family:LaurenScript;-inkscape-font-specification:'LaurenScript, Normal';font-variant-ligatures:normal;font-variant-caps:normal;font-variant-numeric:normal;font-feature-settings:normal;text-align:center;writing-mode:lr-tb;text-anchor:middle;stroke-width:0.01752221"
                 id="path1835"
                 inkscape:connector-curvature="0" />
              <path
                 d="m 88.151034,125.34081 q -0.537348,0.54902 -0.887792,0.8177 -1.051333,0.8177 -1.869036,0.8177 h -1.02797 q -0.607437,0 -1.261599,-0.58407 -0.782659,-0.70089 -0.782659,-1.67045 0,-0.42054 0.373807,-1.10974 0.467259,-0.85275 1.168148,-1.37842 0.911155,-0.67752 2.032576,-0.67752 0.864429,0 1.226555,0.35044 0.303719,0.29204 0.303719,0.87611 0,0.87611 -0.899474,1.51859 -0.467259,0.33877 -1.670451,0.84107 -0.899473,0.37381 -0.899473,0.60744 0,0.23363 0.327081,0.47894 0.327081,0.23363 0.79434,0.23363 0.899474,0 1.483547,-0.38549 0.794341,-0.61912 1.588681,-1.24992 z m -2.044258,-2.55825 q 0,-0.36212 -0.116815,-0.49062 -0.116815,-0.1285 -0.39717,-0.1285 -0.560711,0 -0.887792,0.5724 -0.327081,0.57239 -0.642481,1.16814 v 0.92284 q 0.677525,-0.25699 1.016288,-0.47894 1.02797,-0.66584 1.02797,-1.56532 z"
                 style="font-style:normal;font-variant:normal;font-weight:normal;font-stretch:normal;font-size:11.68147469px;font-family:LaurenScript;-inkscape-font-specification:'LaurenScript, Normal';font-variant-ligatures:normal;font-variant-caps:normal;font-variant-numeric:normal;font-feature-settings:normal;text-align:center;writing-mode:lr-tb;text-anchor:middle;stroke-width:0.01752221"
                 id="path1837"
                 inkscape:connector-curvature="0" />
              <path
                 d="m 92.625586,124.41797 q -0.175222,0.12849 -0.338763,0.25699 -0.128496,0.0701 -0.39717,0.0701 -0.584074,0 -0.957881,-0.57239 -0.268674,-0.45558 -0.537348,-0.91116 -0.724251,1.20319 -1.051332,1.97417 -0.327082,0.87611 -0.642481,1.74054 h -1.168148 v -1.06301 q 0.128496,-0.40885 0.292037,-1.71718 0.151859,-1.32001 0.338763,-1.81063 0.3154,-0.82938 0.957881,-0.82938 0.09345,0 0.315399,0.23363 0.221948,0.23363 0.221948,0.29203 l -0.432214,1.3901 v 0.42053 q 0.513985,-0.39717 1.249918,-1.56532 0.47894,-0.77097 1.296643,-0.77097 0.245311,0 0.338763,0.0467 0.198585,0.0935 0.198585,0.37381 0,0.1869 -0.3154,0.86443 -0.315399,0.67753 -0.315399,0.9462 0,0.35044 0.39717,0.44389 0.39717,0.0935 0.549029,0.18691 z"
                 style="font-style:normal;font-variant:normal;font-weight:normal;font-stretch:normal;font-size:11.68147469px;font-family:LaurenScript;-inkscape-font-specification:'LaurenScript, Normal';font-variant-ligatures:normal;font-variant-caps:normal;font-variant-numeric:normal;font-feature-settings:normal;text-align:center;writing-mode:lr-tb;text-anchor:middle;stroke-width:0.01752221"
                 id="path1839"
                 inkscape:connector-curvature="0" />
              <path
                 d="m 96.264,125.21231 q -0.71257,1.00461 -1.355051,1.41346 -0.537348,0.35044 -1.074696,0.35044 -0.770977,0 -1.179828,-0.54903 -0.362126,-0.47894 -0.362126,-1.21487 v -1.86904 q 0,-1.07469 0.432214,-2.94373 0.490622,-2.11435 1.133103,-3.44603 0.806022,-1.65877 1.635407,-1.65877 0.140178,0 0.3154,0.10513 0.455577,0.26867 0.455577,0.77098 v 1.7639 q 0,1.0747 -0.677525,2.42975 -0.642481,1.16814 -1.284963,2.32461 -0.689207,1.37841 -0.689207,2.41807 0.05841,0.44389 0.105134,0.65416 0.16354,0.66584 0.443896,0.66584 0.47894,0 1.203192,-0.87611 0.490622,-0.58407 0.899473,-0.88779 z m -0.443896,-7.27756 v -1.97417 q -0.105133,0.0351 -0.151859,0.0351 -0.09345,-0.0351 -0.175222,-0.0351 -0.385489,0 -0.782659,1.60036 -0.303718,1.19151 -0.560711,3.0255 -0.210266,1.47187 -0.210266,1.76391 0.841066,-1.68213 1.553636,-3.67967 0.245311,-0.67752 0.327081,-0.73593 z"
                 style="font-style:normal;font-variant:normal;font-weight:normal;font-stretch:normal;font-size:11.68147469px;font-family:LaurenScript;-inkscape-font-specification:'LaurenScript, Normal';font-variant-ligatures:normal;font-variant-caps:normal;font-variant-numeric:normal;font-feature-settings:normal;text-align:center;writing-mode:lr-tb;text-anchor:middle;stroke-width:0.01752221"
                 id="path1841"
                 inkscape:connector-curvature="0" />
              <path
                 d="m 102.09123,125.34081 q -0.53735,0.54902 -0.88779,0.8177 -1.05133,0.8177 -1.869036,0.8177 h -1.02797 q -0.607437,0 -1.261599,-0.58407 -0.782659,-0.70089 -0.782659,-1.67045 0,-0.42054 0.373807,-1.10974 0.467259,-0.85275 1.168148,-1.37842 0.911155,-0.67752 2.032576,-0.67752 0.864433,0 1.226553,0.35044 0.30372,0.29204 0.30372,0.87611 0,0.87611 -0.89947,1.51859 -0.46726,0.33877 -1.670454,0.84107 -0.899474,0.37381 -0.899474,0.60744 0,0.23363 0.327082,0.47894 0.327081,0.23363 0.79434,0.23363 0.899474,0 1.483546,-0.38549 0.79434,-0.61912 1.58868,-1.24992 z m -2.04426,-2.55825 q 0,-0.36212 -0.116811,-0.49062 -0.116815,-0.1285 -0.39717,-0.1285 -0.560711,0 -0.887792,0.5724 -0.327081,0.57239 -0.642481,1.16814 v 0.92284 q 0.677525,-0.25699 1.016288,-0.47894 1.027966,-0.66584 1.027966,-1.56532 z"
                 style="font-style:normal;font-variant:normal;font-weight:normal;font-stretch:normal;font-size:11.68147469px;font-family:LaurenScript;-inkscape-font-specification:'LaurenScript, Normal';font-variant-ligatures:normal;font-variant-caps:normal;font-variant-numeric:normal;font-feature-settings:normal;text-align:center;writing-mode:lr-tb;text-anchor:middle;stroke-width:0.01752221"
                 id="path1843"
                 inkscape:connector-curvature="0" />
              <path
                 d="m 106.95127,125.44594 q -0.30372,0.51398 -0.91115,0.96956 -0.73594,0.56071 -1.34337,0.56071 h -0.99293 q -0.51398,0 -0.98124,-0.39717 -0.64248,-0.53735 -0.64248,-1.50691 0,-0.25699 0.91115,-1.88072 0.91116,-1.6354 1.0747,-1.6354 0.28035,0 0.33876,0.11681 0.0234,0.0467 0.0234,0.24531 v 0.6308 q 0,0.38549 0.6308,1.0747 0.6308,0.68921 0.6308,1.36673 -0.0584,0.25699 -0.0935,0.40885 -0.11681,0.46726 -0.17522,0.66585 0.6308,-0.0818 0.82938,-0.42054 0.24531,-0.40885 0.70089,-0.57239 z m -2.61665,-0.28036 v -0.80602 q 0,-0.1869 -0.19858,-0.6308 -0.1285,-0.26867 -0.257,-0.54903 -0.32708,0.16354 -0.52566,0.50231 -0.18691,0.33876 -0.37381,0.67752 0.17522,0.10513 0.26867,0.25699 0.0935,0.14018 0.0935,0.37381 0,0.30372 -0.18691,0.56071 -0.17522,0.25699 -0.17522,0.33876 0,0.10514 0.14018,0.23363 0.14018,0.1285 0.22195,0.1285 0.19858,0 0.54903,-0.28036 0.44389,-0.36212 0.44389,-0.80602 z"
                 style="font-style:normal;font-variant:normal;font-weight:normal;font-stretch:normal;font-size:11.68147469px;font-family:LaurenScript;-inkscape-font-specification:'LaurenScript, Normal';font-variant-ligatures:normal;font-variant-caps:normal;font-variant-numeric:normal;font-feature-settings:normal;text-align:center;writing-mode:lr-tb;text-anchor:middle;stroke-width:0.01752221"
                 id="path1845"
                 inkscape:connector-curvature="0" />
            </g>
            <g
               id="g2047"
               transform="matrix(0.61691491,0,0,0.61691491,39.716167,48.687446)"
               style="fill:#4d4d4d">
              <path
                 d="m 120.09257,124.79178 q -0.11682,0.79434 -0.66585,1.40177 -0.60744,0.67753 -1.41346,0.67753 -0.53734,0 -0.88779,-0.4439 -0.28035,-0.35044 -0.47894,-0.5023 -0.49062,0.5023 -0.71257,0.66584 -0.52567,0.38549 -1.36673,0.38549 -0.35045,-0.0467 -0.54903,-0.12849 -1.21487,-0.47895 -1.21487,-1.95081 0,-1.35505 1.01628,-2.37134 0.96957,-0.96956 2.11435,-0.96956 0.40885,0 0.59576,0.0818 0.1869,0.0701 0.53734,0.33876 0.0584,-0.035 0.0935,-0.0935 l 0.0117,-0.0117 q 0.0467,0.0584 0.21026,0.10513 0,-1.3901 0.40885,-2.94373 0.49063,-1.84567 1.14479,-1.84567 0.52567,0 0.56071,0.035 0.0234,0.16354 0.0701,0.39717 l -1.65877,8.2004 q 0.0467,0.0935 0.0467,0.19858 0,0.0934 -0.0467,0.32708 h 0.6308 q 0.42053,-0.33876 0.77098,-0.84106 0.29203,-0.42054 0.78266,-0.71257 z m -3.23577,-0.9462 v -1.02797 q 0,-0.3154 -0.24531,-0.52567 -0.23363,-0.21027 -0.45558,-0.21027 -0.8177,0 -1.36673,1.42514 -0.43222,1.10974 -0.43222,1.91577 0,0.64248 0.0701,0.73593 0.17522,0.0818 0.35044,0.29204 0.70089,-0.22195 1.03966,-0.46726 1.03965,-0.74762 1.03965,-2.13771 z"
                 style="font-style:normal;font-variant:normal;font-weight:normal;font-stretch:normal;font-size:11.68147469px;font-family:LaurenScript;-inkscape-font-specification:'LaurenScript, Normal';font-variant-ligatures:normal;font-variant-caps:normal;font-variant-numeric:normal;font-feature-settings:normal;text-align:center;writing-mode:lr-tb;text-anchor:middle;fill:#4d4d4d;stroke-width:0.01752221"
                 id="path1847"
                 inkscape:connector-curvature="0" />
              <path
                 d="m 126.93955,125.2824 q 0,0.44389 -0.70089,1.1331 -0.6892,0.67753 -1.21487,0.67753 -0.85275,0 -1.05133,-0.74762 -0.28036,-1.03965 -0.43222,-1.16815 -0.53734,0.89948 -0.95788,1.27329 -0.58407,0.52566 -1.39009,0.52566 -0.65417,0 -0.93452,-0.58407 -0.22195,-0.45558 -0.22195,-1.21488 0.0467,-0.44389 0.0935,-0.89947 0.16354,-1.03965 0.45558,-1.69381 0.40885,-0.91116 1.03965,-0.91116 0.11682,0 0.21027,0.0818 0.0935,0.0701 0.3154,0.33877 -0.32708,0.32708 -0.51399,1.49522 -0.25699,1.577 -0.32708,1.79895 v 1.06302 h 0.52567 q 1.15646,-0.91116 1.74054,-2.18444 0.3154,-0.87611 0.64248,-1.7639 0.29204,-0.72425 0.91115,-0.72425 0.10514,0 0.18691,0.0117 0.0934,0 0.17522,0 0.0935,0 0.17522,-0.0117 v 0.85274 q -0.30372,0.33877 -0.40885,1.15647 -0.14018,1.09806 -0.23363,1.39009 v 1.16815 q 0.5023,0 0.84107,-0.26867 0.39717,-0.3154 0.85274,-1.21488 0.22195,0.16355 0.22195,0.42054 z"
                 style="font-style:normal;font-variant:normal;font-weight:normal;font-stretch:normal;font-size:11.68147469px;font-family:LaurenScript;-inkscape-font-specification:'LaurenScript, Normal';font-variant-ligatures:normal;font-variant-caps:normal;font-variant-numeric:normal;font-feature-settings:normal;text-align:center;writing-mode:lr-tb;text-anchor:middle;fill:#4d4d4d;stroke-width:0.01752221"
                 id="path1849"
                 inkscape:connector-curvature="0" />
            </g>
            <g
               id="g2070"
               transform="translate(-12.275168)">
              <g
                 id="g2059">
                <g
                   id="flowRoot907-0-9-9"
                   style="font-style:normal;font-variant:normal;font-weight:normal;font-stretch:normal;font-size:16px;line-height:125%;font-family:sans-serif;-inkscape-font-specification:'sans-serif, Normal';font-variant-ligatures:normal;font-variant-caps:normal;font-variant-numeric:normal;font-feature-settings:normal;text-align:start;letter-spacing:0px;word-spacing:0px;writing-mode:lr-tb;text-anchor:start;fill:#000000;fill-opacity:1;stroke:none;stroke-width:2.07742834;stroke-linecap:butt;stroke-linejoin:miter;stroke-miterlimit:4;stroke-dasharray:none;stroke-opacity:1"
                   transform="matrix(0.09218243,0,0,0.09218243,126.40841,59.205194)"
                   aria-label="R">
                  <path
                     id="path2003"
                     d="m 409.73242,658.83789 q 0.50781,0.17188 0.98438,0.73438 0.48437,0.5625 0.96875,1.54687 l 1.60156,3.1875 h -1.69531 l -1.49219,-2.99219 q -0.57813,-1.17187 -1.125,-1.55468 -0.53906,-0.38282 -1.47656,-0.38282 h -1.71875 v 4.92969 h -1.57813 v -11.66406 h 3.5625 q 2,0 2.98438,0.83594 0.98437,0.83593 0.98437,2.52343 0,1.10157 -0.51562,1.82813 -0.50782,0.72656 -1.48438,1.00781 z m -3.95312,-4.89844 v 4.14063 h 1.98437 q 1.14063,0 1.71875,-0.52344 0.58594,-0.53125 0.58594,-1.55469 0,-1.02343 -0.58594,-1.53906 -0.57812,-0.52344 -1.71875,-0.52344 z"
                     inkscape:connector-curvature="0" />
                </g>
                <path
                   id="path915-9-7-7"
                   d="m 96.601502,131.23322 a 0.79695374,0.83664811 0 0 1 1.11044,0.19648 0.79695374,0.83664811 0 0 1 -0.185274,1.16609 0.79695374,0.83664811 0 0 1 -1.111071,-0.19252 0.79695374,0.83664811 0 0 1 0.181493,-1.16674"
                   style="opacity:0.33800001;fill:none;fill-opacity:1;stroke:#000800;stroke-width:0.17488147;stroke-miterlimit:4;stroke-dasharray:none;stroke-opacity:1"
                   transform="matrix(1.5947198,0,0,1.5947198,9.2991861,-90.463003)"
                   inkscape:connector-curvature="0" />
                <path
                   inkscape:connector-curvature="0"
                   id="path1851"
                   style="font-style:normal;font-variant:normal;font-weight:normal;font-stretch:normal;font-size:11.68147469px;font-family:LaurenScript;-inkscape-font-specification:'LaurenScript, Normal';font-variant-ligatures:normal;font-variant-caps:normal;font-variant-numeric:normal;font-feature-settings:normal;text-align:center;writing-mode:lr-tb;text-anchor:middle;stroke-width:0.01752221"
                   d="m 141.673,117.09368 q 0,0.93452 -0.47894,1.81063 -0.35045,0.64248 -0.89948,1.17983 -0.19858,0.19859 -0.51398,0.43222 0.80602,0.51398 1.24992,0.95788 0.45557,0.44389 0.45557,1.03965 v 0.85275 q 0,1.02797 -1.21487,2.27788 -1.29664,1.33169 -2.58161,1.33169 -0.66584,0 -1.19151,-0.42053 -0.51398,-0.43222 -0.51398,-1.00461 0,-0.32708 0.26867,-0.8177 0.19859,-0.36213 0.39717,-0.60744 h 0.46726 v 0.28036 q -0.75929,0.60743 -0.75929,1.14478 0,0.33876 0.32708,0.59576 0.33876,0.25699 0.91115,0.25699 0.84107,0 1.55364,-1.06301 0.72425,-1.06302 0.72425,-2.45311 0,-0.56072 -0.22195,-1.02797 -0.28035,-0.58408 -0.72425,-0.58408 -0.11681,0 -0.85275,0.38549 -0.35044,0.1869 -0.57239,0.1869 -0.0701,0 -0.23363,-0.14017 -0.15186,-0.14018 -0.15186,-0.24531 0,-0.3154 0.80602,-0.65417 1.12143,-0.46726 1.5186,-0.8177 0.8177,-0.71257 0.8177,-1.93913 v -0.85274 q 0,-0.32708 -0.45558,-0.73594 -0.45558,-0.40885 -0.87611,-0.40885 -0.40885,0 -1.36673,0.56071 -1.10974,0.65417 -1.10974,1.24992 0,0.17522 0.0818,0.45558 0.21026,0.73593 0.21026,1.34337 0,1.17983 -0.44389,2.94373 -0.4439,1.7639 -1.09806,2.96709 -0.7593,1.40178 -1.49523,1.40178 -0.5023,0 -0.85275,-0.71257 -0.29203,-0.58407 -0.29203,-1.08638 0,-0.96956 0.6892,-2.68673 0.46726,-1.15647 1.27328,-2.73347 0.70089,-1.36673 0.70089,-1.42514 0,-0.40885 -0.23363,-0.6308 -0.22194,-0.22195 -0.52566,-0.22195 -0.43222,0.18691 -0.65417,0.53735 -0.3738,0.57239 -0.58407,1.64709 h -0.28035 v -0.7593 q 0.38548,-1.20319 0.93451,-1.68213 0.47894,-0.40885 1.14479,-0.40885 0.3154,0 0.60743,0.11681 0.26868,0.14018 0.53735,0.26868 0.24531,-0.24531 0.49062,-0.49062 0.6308,-0.56072 1.28497,-0.91116 0.95788,-0.5023 1.83399,-0.5023 0.80602,0 1.34337,0.51398 0.54903,0.50231 0.54903,1.28496 z m -6.35473,3.99507 v -1.61205 q -0.54902,0.81771 -1.03965,2.05594 -0.40885,1.02797 -0.6892,2.05594 -0.26868,1.01629 -0.26868,1.3901 v 0.7593 q 0.0234,0.1869 0.0584,0.28035 0.10513,0.29204 0.32708,0.29204 0.42053,0 0.84107,-1.32001 0.30372,-0.96956 0.56071,-2.47647 0.21026,-1.23824 0.21026,-1.42514 z" />
                <path
                   inkscape:connector-curvature="0"
                   id="path1853"
                   style="font-style:normal;font-variant:normal;font-weight:normal;font-stretch:normal;font-size:11.68147469px;font-family:LaurenScript;-inkscape-font-specification:'LaurenScript, Normal';font-variant-ligatures:normal;font-variant-caps:normal;font-variant-numeric:normal;font-feature-settings:normal;text-align:center;writing-mode:lr-tb;text-anchor:middle;stroke-width:0.01752221"
                   d="m 147.31131,125.34081 q -0.53734,0.54902 -0.88779,0.8177 -1.05133,0.8177 -1.86903,0.8177 h -1.02797 q -0.60744,0 -1.2616,-0.58407 -0.78266,-0.70089 -0.78266,-1.67045 0,-0.42054 0.3738,-1.10974 0.46726,-0.85275 1.16815,-1.37842 0.91116,-0.67752 2.03258,-0.67752 0.86443,0 1.22655,0.35044 0.30372,0.29204 0.30372,0.87611 0,0.87611 -0.89947,1.51859 -0.46726,0.33877 -1.67045,0.84107 -0.89948,0.37381 -0.89948,0.60744 0,0.23363 0.32709,0.47894 0.32708,0.23363 0.79434,0.23363 0.89947,0 1.48354,-0.38549 0.79434,-0.61912 1.58868,-1.24992 z m -2.04425,-2.55825 q 0,-0.36212 -0.11682,-0.49062 -0.11681,-0.1285 -0.39717,-0.1285 -0.56071,0 -0.88779,0.5724 -0.32708,0.57239 -0.64248,1.16814 v 0.92284 q 0.67752,-0.25699 1.01629,-0.47894 1.02797,-0.66584 1.02797,-1.56532 z" />
                <path
                   inkscape:connector-curvature="0"
                   id="path1855"
                   style="font-style:normal;font-variant:normal;font-weight:normal;font-stretch:normal;font-size:11.68147469px;font-family:LaurenScript;-inkscape-font-specification:'LaurenScript, Normal';font-variant-ligatures:normal;font-variant-caps:normal;font-variant-numeric:normal;font-feature-settings:normal;text-align:center;writing-mode:lr-tb;text-anchor:middle;stroke-width:0.01752221"
                   d="m 151.78587,124.41797 q -0.17522,0.12849 -0.33876,0.25699 -0.1285,0.0701 -0.39717,0.0701 -0.58408,0 -0.95789,-0.57239 -0.26867,-0.45558 -0.53734,-0.91116 -0.72425,1.20319 -1.05134,1.97417 -0.32708,0.87611 -0.64248,1.74054 h -1.16814 v -1.06301 q 0.12849,-0.40885 0.29203,-1.71718 0.15186,-1.32001 0.33876,-1.81063 0.3154,-0.82938 0.95789,-0.82938 0.0934,0 0.3154,0.23363 0.22194,0.23363 0.22194,0.29203 l -0.43221,1.3901 v 0.42053 q 0.51398,-0.39717 1.24992,-1.56532 0.47894,-0.77097 1.29664,-0.77097 0.24531,0 0.33876,0.0467 0.19859,0.0935 0.19859,0.37381 0,0.1869 -0.3154,0.86443 -0.3154,0.67753 -0.3154,0.9462 0,0.35044 0.39717,0.44389 0.39717,0.0935 0.54903,0.18691 z" />
                <path
                   inkscape:connector-curvature="0"
                   id="path1857"
                   style="font-style:normal;font-variant:normal;font-weight:normal;font-stretch:normal;font-size:11.68147469px;font-family:LaurenScript;-inkscape-font-specification:'LaurenScript, Normal';font-variant-ligatures:normal;font-variant-caps:normal;font-variant-numeric:normal;font-feature-settings:normal;text-align:center;writing-mode:lr-tb;text-anchor:middle;stroke-width:0.01752221"
                   d="m 155.93827,124.41797 q -0.17523,0.12849 -0.33877,0.25699 -0.12849,0.0701 -0.39717,0.0701 -0.58407,0 -0.95788,-0.57239 -0.26867,-0.45558 -0.53735,-0.91116 -0.72425,1.20319 -1.05133,1.97417 -0.32708,0.87611 -0.64248,1.74054 h -1.16815 v -1.06301 q 0.1285,-0.40885 0.29204,-1.71718 0.15186,-1.32001 0.33876,-1.81063 0.3154,-0.82938 0.95788,-0.82938 0.0934,0 0.3154,0.23363 0.22195,0.23363 0.22195,0.29203 l -0.43221,1.3901 v 0.42053 q 0.51398,-0.39717 1.24991,-1.56532 0.47894,-0.77097 1.29665,-0.77097 0.24531,0 0.33876,0.0467 0.19859,0.0935 0.19859,0.37381 0,0.1869 -0.3154,0.86443 -0.3154,0.67753 -0.3154,0.9462 0,0.35044 0.39717,0.44389 0.39717,0.0935 0.54903,0.18691 z" />
              </g>
              <path
                 d="m 162.40359,124.73337 q -0.19858,0.82938 -1.02797,1.64709 -0.92283,0.75929 -1.84567,1.51859 -0.0467,0.0935 -0.15186,0.95788 -0.0117,0.14018 -0.0467,0.38549 -0.43222,1.05133 -0.66585,1.42514 -0.61912,0.99292 -1.35505,0.99292 -0.43221,0 -0.60744,-0.29203 -0.16354,-0.29204 -0.16354,-0.74762 0,-0.79434 0.65417,-1.53027 0.74761,-0.59576 1.50691,-1.19151 0.0934,-0.52567 0.14017,-0.81771 0.16355,-0.85274 0.26868,-1.17982 v -0.30372 q -0.24531,0.16354 -1.24992,1.0046 -0.4439,0.37381 -0.99292,0.37381 -0.50231,0 -0.8878,-0.35044 -0.3738,-0.36213 -0.3738,-0.81771 v -1.17982 q 0.15186,-1.02797 0.29203,-1.53028 0.42054,-1.54195 1.0747,-1.54195 0.25699,0 0.44389,0.10513 0.19859,0.10513 0.19859,0.3154 -0.28036,0.91116 -0.42053,1.42514 -0.42054,1.56532 -0.42054,2.30125 0,0.39717 0.0935,0.57239 0.0934,0.17523 0.42053,0.17523 0.86443,0 1.51859,-1.41346 0.61912,-1.69382 1.24992,-3.38763 h 1.08638 v 0.53735 q -0.49063,1.4485 -0.80603,2.48815 -0.0117,0.035 -0.43221,1.46019 -0.1869,0.64248 -0.30372,0.92283 v 0.29204 q 0.40885,-0.14018 1.22656,-1.06302 0.82938,-0.93451 1.14478,-1.55363 z m -3.94833,3.59789 q -0.68921,0.17522 -1.13311,1.10974 -0.35044,0.73594 -0.35044,1.24992 0,0.24531 0.0818,0.39717 0.0934,0.15186 0.17522,0.15186 0.59576,0 0.96956,-1.4485 0.11682,-0.47894 0.257,-1.46019 z"
                 style="font-style:normal;font-variant:normal;font-weight:normal;font-stretch:normal;font-size:11.68147469px;font-family:LaurenScript;-inkscape-font-specification:'LaurenScript, Normal';font-variant-ligatures:normal;font-variant-caps:normal;font-variant-numeric:normal;font-feature-settings:normal;text-align:center;writing-mode:lr-tb;text-anchor:middle;stroke-width:0.01752221"
                 id="path1859"
                 inkscape:connector-curvature="0" />
            </g>
          </g>
        </g>
      </g>
    </g>
  </g>
</svg>
