<?xml version="1.0" encoding="UTF-8" standalone="no"?>
<svg
   xmlns:dc="http://purl.org/dc/elements/1.1/"
   xmlns:cc="http://creativecommons.org/ns#"
   xmlns:rdf="http://www.w3.org/1999/02/22-rdf-syntax-ns#"
   xmlns:svg="http://www.w3.org/2000/svg"
   xmlns="http://www.w3.org/2000/svg"
   xmlns:sodipodi="http://sodipodi.sourceforge.net/DTD/sodipodi-0.dtd"
   xmlns:inkscape="http://www.inkscape.org/namespaces/inkscape"
   sodipodi:docname="perles-berry-logo.svg"
   inkscape:version="0.92.3 (2405546, 2018-03-11)"
   id="svg995"
   version="1.1"
   viewBox="0 0 16.089346 16.201229"
   height="16.201229mm"
   width="16.089346mm"
   inkscape:export-filename="/home/stephe/Lys/Perles du Berry/Etiquettes Logo/LOGO PdB/logo/LOGO PDB V10.png"
   inkscape:export-xdpi="300"
   inkscape:export-ydpi="300">
  <defs
     id="defs989" />
  <sodipodi:namedview
     inkscape:window-maximized="1"
     inkscape:window-y="27"
     inkscape:window-x="67"
     inkscape:window-height="1025"
     inkscape:window-width="1853"
     showgrid="false"
     inkscape:document-rotation="0"
     inkscape:current-layer="g1935"
     inkscape:document-units="mm"
     inkscape:cy="35.468007"
     inkscape:cx="158.06036"
     inkscape:zoom="1.43"
     inkscape:pageshadow="2"
     inkscape:pageopacity="0.0"
     borderopacity="1.0"
     bordercolor="#666666"
     pagecolor="#ffffff"
     id="base"
     fit-margin-top="0"
     fit-margin-left="0"
     fit-margin-right="0"
     fit-margin-bottom="0"
     showguides="true"
     inkscape:guide-bbox="true" />
  <metadata
     id="metadata992">
    <rdf:RDF>
      <cc:Work
         rdf:about="">
        <dc:format>image/svg+xml</dc:format>
        <dc:type
           rdf:resource="http://purl.org/dc/dcmitype/StillImage" />
        <dc:title></dc:title>
      </cc:Work>
    </rdf:RDF>
  </metadata>
  <g
     id="layer1"
     inkscape:groupmode="layer"
     inkscape:label="Calque 1"
     transform="translate(-30.052536,-119.46565)">
    <g
       id="g3730"
       transform="matrix(0.94672233,0,0,0.94672233,2.8865413,7.6713759)">
      <text
         xml:space="preserve"
         style="font-style:normal;font-weight:normal;font-size:3.93157434px;line-height:1.25;font-family:sans-serif;fill:#000000;fill-opacity:1;stroke:none;stroke-width:0.21061932"
         x="67.566917"
         y="139.10291"
         id="text2926-6-0"><tspan
           sodipodi:role="line"
           x="67.566917"
           y="142.58142"
           id="tspan2930-2-3"
           style="font-style:normal;font-variant:normal;font-stretch:normal;font-size:4.23333311px;font-family:LaurenScript;-inkscape-font-specification:'LaurenScript,  weight=101';font-variant-ligatures:normal;font-variant-caps:normal;font-variant-numeric:normal;font-feature-settings:normal;text-align:start;writing-mode:lr-tb;text-anchor:start;stroke-width:0.21061932" /></text>
      <g
         id="g1899"
         transform="matrix(1.1508392,0,0,1.1508392,26.851936,-30.168854)">
        <text
           id="text2926-62-1-6-6"
           y="159.15451"
           x="137.8038"
           style="font-style:normal;font-weight:normal;font-size:6.72721338px;line-height:1.25;font-family:sans-serif;fill:#000000;fill-opacity:1;stroke:none;stroke-width:0.36038515;stroke-miterlimit:4;stroke-dasharray:none;stroke-opacity:1"
           xml:space="preserve"><tspan
             id="tspan2930-5-7-1-1"
             y="165.10652"
             x="137.8038"
             sodipodi:role="line"
             style="font-style:normal;font-variant:normal;font-weight:normal;font-stretch:normal;font-size:6.97070456px;font-family:LaurenScript;-inkscape-font-specification:'LaurenScript, Normal';font-variant-ligatures:normal;font-variant-caps:normal;font-variant-numeric:normal;font-feature-settings:normal;text-align:start;writing-mode:lr-tb;text-anchor:start;stroke-width:0.36038515" /></text>
        <g
           id="g852"
           transform="matrix(1.6537838,0,0,1.6537838,30.049978,-64.184719)"
           style="fill:#5d0000;fill-opacity:1;stroke:#0d0701;stroke-width:0.06;stroke-miterlimit:4;stroke-dasharray:none;stroke-opacity:1" />
      </g>
      <g
         id="g1935"
         transform="translate(-79.346881,-26.188379)">
        <g
           transform="matrix(0.60469067,0,0,0.60469067,43.89166,58.472462)"
           id="g1867">
          <path
             id="path1443-1-4-7-7"
             style="fill:#000000;fill-opacity:1;stroke:#0d0701;stroke-width:0.20331487;stroke-miterlimit:4;stroke-dasharray:none;stroke-opacity:0.977778"
             d="m 120.12691,143.28568 a 12.660029,12.660029 0 0 0 -0.15083,9.6e-4 12.660029,12.660029 0 0 0 -0.15034,0.003 12.660029,12.660029 0 0 0 -0.15083,0.005 12.660029,12.660029 0 0 0 -0.15034,0.007 12.660029,12.660029 0 0 0 -0.15033,0.009 12.660029,12.660029 0 0 0 -0.14985,0.01 12.660029,12.660029 0 0 0 -0.15033,0.0119 12.660029,12.660029 0 0 0 -0.14985,0.0133 12.660029,12.660029 0 0 0 -0.14984,0.0153 12.660029,12.660029 0 0 0 -0.14935,0.0173 12.660029,12.660029 0 0 0 -0.14935,0.0188 12.660029,12.660029 0 0 0 -0.14935,0.0208 12.660029,12.660029 0 0 0 -0.14885,0.0223 12.660029,12.660029 0 0 0 -0.14886,0.0242 12.660029,12.660029 0 0 0 -0.14786,0.0262 12.660029,12.660029 0 0 0 -0.14836,0.0276 12.660029,12.660029 0 0 0 -0.14737,0.0297 12.660029,12.660029 0 0 0 -0.14737,0.0312 12.660029,12.660029 0 0 0 -0.14688,0.0331 12.660029,12.660029 0 0 0 -0.14638,0.0346 12.660029,12.660029 0 0 0 -0.14638,0.0366 12.660029,12.660029 0 0 0 -0.14539,0.0381 12.660029,12.660029 0 0 0 -0.1449,0.0401 12.660029,12.660029 0 0 0 -0.1449,0.0415 12.660029,12.660029 0 0 0 -0.1444,0.0435 12.660029,12.660029 0 0 0 -0.14342,0.045 12.660029,12.660029 0 0 0 -0.14292,0.047 12.660029,12.660029 0 0 0 -0.14292,0.0484 12.660029,12.660029 0 0 0 -0.14193,0.05 12.660029,12.660029 0 0 0 -0.14094,0.052 12.660029,12.660029 0 0 0 -0.14094,0.0539 12.660029,12.660029 0 0 0 -0.13995,0.0549 12.660029,12.660029 0 0 0 -0.13946,0.0568 12.660029,12.660029 0 0 0 -0.13847,0.0589 12.660029,12.660029 0 0 0 -0.13798,0.0598 12.660029,12.660029 0 0 0 -0.13748,0.0618 12.660029,12.660029 0 0 0 -0.13649,0.0638 12.660029,12.660029 0 0 0 -0.13599,0.0648 12.660029,12.660029 0 0 0 -0.13501,0.0668 12.660029,12.660029 0 0 0 -0.13402,0.0682 12.660029,12.660029 0 0 0 -0.13352,0.0702 12.660029,12.660029 0 0 0 -0.13204,0.0712 12.660029,12.660029 0 0 0 -0.13204,0.0732 12.660029,12.660029 0 0 0 -0.13056,0.0746 12.660029,12.660029 0 0 0 -0.13006,0.0762 12.660029,12.660029 0 0 0 -0.12907,0.0776 12.660029,12.660029 0 0 0 -0.12759,0.0791 12.660029,12.660029 0 0 0 -0.1271,0.0806 12.660029,12.660029 0 0 0 -0.1261,0.0821 12.660029,12.660029 0 0 0 -0.12512,0.084 12.660029,12.660029 0 0 0 -0.12413,0.0851 12.660029,12.660029 0 0 0 -0.12314,0.0865 12.660029,12.660029 0 0 0 -0.12215,0.088 12.660029,12.660029 0 0 0 -0.12116,0.09 12.660029,12.660029 0 0 0 -0.11967,0.091 12.660029,12.660029 0 0 0 -0.11919,0.0925 12.660029,12.660029 0 0 0 -0.11769,0.0935 12.660029,12.660029 0 0 0 -0.11672,0.0954 12.660029,12.660029 0 0 0 -0.11522,0.0964 12.660029,12.660029 0 0 0 -0.11424,0.0979 12.660029,12.660029 0 0 0 -0.11325,0.0994 12.660029,12.660029 0 0 0 -0.11176,0.10088 12.660029,12.660029 0 0 0 -0.11077,0.10187 12.660029,12.660029 0 0 0 -0.10979,0.10337 12.660029,12.660029 0 0 0 -0.1083,0.10434 12.660029,12.660029 0 0 0 -0.10682,0.10583 12.660029,12.660029 0 0 0 -0.10583,0.10731 12.660029,12.660029 0 0 0 -0.10435,0.10831 12.660029,12.660029 0 0 0 -0.10336,0.10978 12.660029,12.660029 0 0 0 -0.10187,0.11078 12.660029,12.660029 0 0 0 -0.10039,0.11225 12.660029,12.660029 0 0 0 -0.0994,0.11325 12.660029,12.660029 0 0 0 -0.0979,0.11424 12.660029,12.660029 0 0 0 -0.0964,0.11572 12.660029,12.660029 0 0 0 -0.0949,0.11671 12.660029,12.660029 0 0 0 -0.094,0.11771 12.660029,12.660029 0 0 0 -0.092,0.11868 12.660029,12.660029 0 0 0 -0.091,0.12017 12.660029,12.660029 0 0 0 -0.0895,0.12116 12.660029,12.660029 0 0 0 -0.088,0.12215 12.660029,12.660029 0 0 0 -0.0865,0.12313 12.660029,12.660029 0 0 0 -0.0851,0.12413 12.660029,12.660029 0 0 0 -0.0836,0.12562 12.660029,12.660029 0 0 0 -0.0821,0.12611 12.660029,12.660029 0 0 0 -0.0806,0.12708 12.660029,12.660029 0 0 0 -0.0791,0.1281 12.660029,12.660029 0 0 0 -0.0776,0.12906 12.660029,12.660029 0 0 0 -0.0757,0.13007 12.660029,12.660029 0 0 0 -0.0747,0.13056 12.660029,12.660029 0 0 0 -0.0727,0.13203 12.660029,12.660029 0 0 0 -0.0717,0.13253 12.660029,12.660029 0 0 0 -0.0697,0.13353 12.660029,12.660029 0 0 0 -0.0678,0.13402 12.660029,12.660029 0 0 0 -0.0668,0.13501 12.660029,12.660029 0 0 0 -0.0648,0.13599 12.660029,12.660029 0 0 0 -0.0633,0.1365 12.660029,12.660029 0 0 0 -0.0618,0.13748 12.660029,12.660029 0 0 0 -0.0598,0.13797 12.660029,12.660029 0 0 0 -0.0589,0.13847 12.660029,12.660029 0 0 0 -0.0564,0.13946 12.660029,12.660029 0 0 0 -0.0554,0.14045 12.660029,12.660029 0 0 0 -0.0534,0.14044 12.660029,12.660029 0 0 0 -0.0514,0.14143 12.660029,12.660029 0 0 0 -0.0504,0.14193 12.660029,12.660029 0 0 0 -0.048,0.14293 12.660029,12.660029 0 0 0 -0.047,0.14292 12.660029,12.660029 0 0 0 -0.045,0.1439 12.660029,12.660029 0 0 0 -0.043,0.14391 12.660029,12.660029 0 0 0 -0.0416,0.1449 12.660029,12.660029 0 0 0 -0.0401,0.14491 12.660029,12.660029 0 0 0 -0.0381,0.14588 12.660029,12.660029 0 0 0 -0.0361,0.14589 12.660029,12.660029 0 0 0 -0.0346,0.14688 12.660029,12.660029 0 0 0 -0.0326,0.14687 12.660029,12.660029 0 0 0 -0.0312,0.14737 12.660029,12.660029 0 0 0 -0.0297,0.14737 12.660029,12.660029 0 0 0 -0.0277,0.14836 12.660029,12.660029 0 0 0 -0.0257,0.14835 12.660029,12.660029 0 0 0 -0.0237,0.14836 12.660029,12.660029 0 0 0 -0.0222,0.14886 12.660029,12.660029 0 0 0 -0.0208,0.14935 12.660029,12.660029 0 0 0 -0.0188,0.14935 12.660029,12.660029 0 0 0 -0.0168,0.14935 12.660029,12.660029 0 0 0 -0.0153,0.14984 12.660029,12.660029 0 0 0 -0.0134,0.14985 12.660029,12.660029 0 0 0 -0.0119,0.15033 12.660029,12.660029 0 0 0 -0.009,0.15034 12.660029,12.660029 0 0 0 -0.008,0.15034 12.660029,12.660029 0 0 0 -0.006,0.15033 12.660029,12.660029 0 0 0 -0.004,0.15034 12.660029,12.660029 0 0 0 -0.003,0.15083 12.660029,12.660029 0 0 0 -9.6e-4,0.15035 12.660029,12.660029 0 0 0 0,0.0133 12.660029,12.660029 0 0 0 9.6e-4,0.15034 12.660029,12.660029 0 0 0 0.003,0.15033 12.660029,12.660029 0 0 0 0.005,0.15084 12.660029,12.660029 0 0 0 0.006,0.15033 12.660029,12.660029 0 0 0 0.008,0.15034 12.660029,12.660029 0 0 0 0.01,0.15033 12.660029,12.660029 0 0 0 0.0119,0.14986 12.660029,12.660029 0 0 0 0.0139,0.14983 12.660029,12.660029 0 0 0 0.0153,0.14985 12.660029,12.660029 0 0 0 0.0168,0.14984 12.660029,12.660029 0 0 0 0.0188,0.14935 12.660029,12.660029 0 0 0 0.0208,0.14885 12.660029,12.660029 0 0 0 0.0228,0.14886 12.660029,12.660029 0 0 0 0.0242,0.14885 12.660029,12.660029 0 0 0 0.0257,0.14836 12.660029,12.660029 0 0 0 0.0277,0.14786 12.660029,12.660029 0 0 0 0.0297,0.14738 12.660029,12.660029 0 0 0 0.0312,0.14737 12.660029,12.660029 0 0 0 0.0331,0.14688 12.660029,12.660029 0 0 0 0.0346,0.14638 12.660029,12.660029 0 0 0 0.0366,0.14638 12.660029,12.660029 0 0 0 0.0381,0.14539 12.660029,12.660029 0 0 0 0.0401,0.1454 12.660029,12.660029 0 0 0 0.0416,0.14439 12.660029,12.660029 0 0 0 0.0435,0.14441 12.660029,12.660029 0 0 0 0.045,0.14341 12.660029,12.660029 0 0 0 0.047,0.14342 12.660029,12.660029 0 0 0 0.0485,0.14242 12.660029,12.660029 0 0 0 0.0504,0.14193 12.660029,12.660029 0 0 0 0.0519,0.14145 12.660029,12.660029 0 0 0 0.0534,0.14044 12.660029,12.660029 0 0 0 0.0554,0.13995 12.660029,12.660029 0 0 0 0.0569,0.13946 12.660029,12.660029 0 0 0 0.0584,0.13896 12.660029,12.660029 0 0 0 0.0603,0.13798 12.660029,12.660029 0 0 0 0.0618,0.13698 12.660029,12.660029 0 0 0 0.0633,0.1365 12.660029,12.660029 0 0 0 0.0653,0.13599 12.660029,12.660029 0 0 0 0.0668,0.135 12.660029,12.660029 0 0 0 0.0682,0.13403 12.660029,12.660029 0 0 0 0.0697,0.13352 12.660029,12.660029 0 0 0 0.0712,0.13254 12.660029,12.660029 0 0 0 0.0732,0.13154 12.660029,12.660029 0 0 0 0.0747,0.13056 12.660029,12.660029 0 0 0 0.0762,0.13006 12.660029,12.660029 0 0 0 0.0776,0.12907 12.660029,12.660029 0 0 0 0.0791,0.12809 12.660029,12.660029 0 0 0 0.0806,0.12709 12.660029,12.660029 0 0 0 0.0826,0.1261 12.660029,12.660029 0 0 0 0.0836,0.12512 12.660029,12.660029 0 0 0 0.0851,0.12413 12.660029,12.660029 0 0 0 0.087,0.12314 12.660029,12.660029 0 0 0 0.088,0.12165 12.660029,12.660029 0 0 0 0.0895,0.12117 12.660029,12.660029 0 0 0 0.091,0.12017 12.660029,12.660029 0 0 0 0.0925,0.11868 12.660029,12.660029 0 0 0 0.094,0.1177 12.660029,12.660029 0 0 0 0.095,0.11671 12.660029,12.660029 0 0 0 0.0969,0.11523 12.660029,12.660029 0 0 0 0.0979,0.11424 12.660029,12.660029 0 0 0 0.0989,0.11325 12.660029,12.660029 0 0 0 0.10088,0.11225 12.660029,12.660029 0 0 0 0.10188,0.11028 12.660029,12.660029 0 0 0 0.10335,0.10979 12.660029,12.660029 0 0 0 0.10484,0.1083 12.660029,12.660029 0 0 0 0.10583,0.10682 12.660029,12.660029 0 0 0 0.10682,0.10583 12.660029,12.660029 0 0 0 0.1088,0.10435 12.660029,12.660029 0 0 0 0.10929,0.10335 12.660029,12.660029 0 0 0 0.11078,0.10188 12.660029,12.660029 0 0 0 0.11226,0.10039 12.660029,12.660029 0 0 0 0.11324,0.0994 12.660029,12.660029 0 0 0 0.11424,0.0979 12.660029,12.660029 0 0 0 0.11572,0.0964 12.660029,12.660029 0 0 0 0.11671,0.0949 12.660029,12.660029 0 0 0 0.1177,0.094 12.660029,12.660029 0 0 0 0.11918,0.0924 12.660029,12.660029 0 0 0 0.12017,0.0905 12.660029,12.660029 0 0 0 0.12067,0.0895 12.660029,12.660029 0 0 0 0.12215,0.088 12.660029,12.660029 0 0 0 0.12314,0.0865 12.660029,12.660029 0 0 0 0.12462,0.0851 12.660029,12.660029 0 0 0 0.12512,0.0835 12.660029,12.660029 0 0 0 0.1261,0.0821 12.660029,12.660029 0 0 0 0.1271,0.0806 12.660029,12.660029 0 0 0 0.12808,0.0791 12.660029,12.660029 0 0 0 0.12907,0.0776 12.660029,12.660029 0 0 0 0.13007,0.0762 12.660029,12.660029 0 0 0 0.13105,0.0742 12.660029,12.660029 0 0 0 0.13154,0.0732 12.660029,12.660029 0 0 0 0.13254,0.0712 12.660029,12.660029 0 0 0 0.13352,0.0698 12.660029,12.660029 0 0 0 0.13402,0.0682 12.660029,12.660029 0 0 0 0.13501,0.0663 12.660029,12.660029 0 0 0 0.13599,0.0653 12.660029,12.660029 0 0 0 0.13649,0.0634 12.660029,12.660029 0 0 0 0.13748,0.0614 12.660029,12.660029 0 0 0 0.13798,0.0603 12.660029,12.660029 0 0 0 0.13896,0.0584 12.660029,12.660029 0 0 0 0.13946,0.0568 12.660029,12.660029 0 0 0 0.13995,0.0549 12.660029,12.660029 0 0 0 0.008,0.003 12.660029,12.660029 0 0 1 -2.09188,-6.96994 12.660029,12.660029 0 0 1 12.66003,-12.66003 12.660029,12.660029 0 0 1 4.55465,0.84763 12.660029,12.660029 0 0 0 -0.005,-0.008 12.660029,12.660029 0 0 0 -0.0836,-0.12511 12.660029,12.660029 0 0 0 -0.0856,-0.12413 12.660029,12.660029 0 0 0 -0.0865,-0.12311 12.660029,12.660029 0 0 0 -0.088,-0.12165 12.660029,12.660029 0 0 0 -0.0895,-0.12116 12.660029,12.660029 0 0 0 -0.091,-0.12017 12.660029,12.660029 0 0 0 -0.0925,-0.11868 12.660029,12.660029 0 0 0 -0.094,-0.1177 12.660029,12.660029 0 0 0 -0.0954,-0.11672 12.660029,12.660029 0 0 0 -0.0964,-0.11523 12.660029,12.660029 0 0 0 -0.0979,-0.11423 12.660029,12.660029 0 0 0 -0.0994,-0.11325 12.660029,12.660029 0 0 0 -0.10039,-0.11226 12.660029,12.660029 0 0 0 -0.10236,-0.11077 12.660029,12.660029 0 0 0 -0.10336,-0.1093 12.660029,12.660029 0 0 0 -0.10435,-0.1083 12.660029,12.660029 0 0 0 -0.10583,-0.10682 12.660029,12.660029 0 0 0 -0.10731,-0.10582 12.660029,12.660029 0 0 0 -0.1083,-0.10485 12.660029,12.660029 0 0 0 -0.10979,-0.10286 12.660029,12.660029 0 0 0 -0.11078,-0.10187 12.660029,12.660029 0 0 0 -0.11176,-0.10089 12.660029,12.660029 0 0 0 -0.11325,-0.0989 12.660029,12.660029 0 0 0 -0.11473,-0.0979 12.660029,12.660029 0 0 0 -0.11572,-0.0964 12.660029,12.660029 0 0 0 -0.11621,-0.0949 12.660029,12.660029 0 0 0 -0.1182,-0.094 12.660029,12.660029 0 0 0 -0.11869,-0.0924 12.660029,12.660029 0 0 0 -0.12017,-0.0905 12.660029,12.660029 0 0 0 -0.12116,-0.0895 12.660029,12.660029 0 0 0 -0.12215,-0.088 12.660029,12.660029 0 0 0 -0.12314,-0.0865 12.660029,12.660029 0 0 0 -0.12412,-0.0851 12.660029,12.660029 0 0 0 -0.12512,-0.0836 12.660029,12.660029 0 0 0 -0.12611,-0.0821 12.660029,12.660029 0 0 0 -0.12758,-0.0806 12.660029,12.660029 0 0 0 -0.12809,-0.0791 12.660029,12.660029 0 0 0 -0.12907,-0.0776 12.660029,12.660029 0 0 0 -0.12957,-0.0762 12.660029,12.660029 0 0 0 -0.13105,-0.0742 12.660029,12.660029 0 0 0 -0.13155,-0.0732 12.660029,12.660029 0 0 0 -0.13302,-0.0712 12.660029,12.660029 0 0 0 -0.13303,-0.0698 12.660029,12.660029 0 0 0 -0.13452,-0.0682 12.660029,12.660029 0 0 0 -0.135,-0.0663 12.660029,12.660029 0 0 0 -0.136,-0.0653 12.660029,12.660029 0 0 0 -0.13649,-0.0633 12.660029,12.660029 0 0 0 -0.13699,-0.0614 12.660029,12.660029 0 0 0 -0.13847,-0.0603 12.660029,12.660029 0 0 0 -0.13846,-0.0584 12.660029,12.660029 0 0 0 -0.13946,-0.0569 12.660029,12.660029 0 0 0 -0.13996,-0.0549 12.660029,12.660029 0 0 0 -0.14094,-0.0534 12.660029,12.660029 0 0 0 -0.14143,-0.052 12.660029,12.660029 0 0 0 -0.14193,-0.05 12.660029,12.660029 0 0 0 -0.14243,-0.0484 12.660029,12.660029 0 0 0 -0.14341,-0.0465 12.660029,12.660029 0 0 0 -0.14342,-0.045 12.660029,12.660029 0 0 0 -0.1444,-0.0431 12.660029,12.660029 0 0 0 -0.1449,-0.0415 12.660029,12.660029 0 0 0 -0.1449,-0.0401 12.660029,12.660029 0 0 0 -0.14589,-0.0381 12.660029,12.660029 0 0 0 -0.14588,-0.0361 12.660029,12.660029 0 0 0 -0.14688,-0.0346 12.660029,12.660029 0 0 0 -0.14687,-0.0331 12.660029,12.660029 0 0 0 -0.14688,-0.0312 12.660029,12.660029 0 0 0 -0.14787,-0.0292 12.660029,12.660029 0 0 0 -0.14786,-0.0277 12.660029,12.660029 0 0 0 -0.14836,-0.0257 12.660029,12.660029 0 0 0 -0.14886,-0.0242 12.660029,12.660029 0 0 0 -0.14885,-0.0223 12.660029,12.660029 0 0 0 -0.14885,-0.0203 12.660029,12.660029 0 0 0 -0.14985,-0.0188 12.660029,12.660029 0 0 0 -0.14935,-0.0173 12.660029,12.660029 0 0 0 -0.14984,-0.0148 12.660029,12.660029 0 0 0 -0.14984,-0.0133 12.660029,12.660029 0 0 0 -0.15034,-0.0119 12.660029,12.660029 0 0 0 -0.14984,-0.01 12.660029,12.660029 0 0 0 -0.15034,-0.008 12.660029,12.660029 0 0 0 -0.15083,-0.007 12.660029,12.660029 0 0 0 -0.15034,-0.005 12.660029,12.660029 0 0 0 -0.15034,-0.003 12.660029,12.660029 0 0 0 -0.15083,-9.5e-4 12.660029,12.660029 0 0 0 -0.0129,0 z"
             inkscape:connector-curvature="0" />
          <path
             id="path930-9-1-1"
             style="fill:#ffe900;fill-opacity:1;stroke:none;stroke-width:0.0975135;stroke-miterlimit:4;stroke-dasharray:none;stroke-opacity:1"
             d="m 120.11406,141.89325 a 14.052463,14.150181 0 0 0 -14.02675,14.15018 14.052463,14.150181 0 0 0 14.05246,14.15018 14.052463,14.150181 0 0 0 14.05247,-14.15018 14.052463,14.150181 0 0 0 -14.05247,-14.15018 14.052463,14.150181 0 0 0 -0.0257,0 z m 0.0129,1.40227 a 12.659877,12.747911 0 0 1 0.0129,0 12.659877,12.747911 0 0 1 0.15083,9.6e-4 12.659877,12.747911 0 0 1 0.15034,0.003 12.659877,12.747911 0 0 1 0.15033,0.005 12.659877,12.747911 0 0 1 0.15083,0.007 12.659877,12.747911 0 0 1 0.15034,0.008 12.659877,12.747911 0 0 1 0.14984,0.01 12.659877,12.747911 0 0 1 0.15034,0.012 12.659877,12.747911 0 0 1 0.14984,0.0134 12.659877,12.747911 0 0 1 0.14984,0.0149 12.659877,12.747911 0 0 1 0.14935,0.0174 12.659877,12.747911 0 0 1 0.14984,0.0189 12.659877,12.747911 0 0 1 0.14885,0.0204 12.659877,12.747911 0 0 1 0.14885,0.0224 12.659877,12.747911 0 0 1 0.14886,0.0244 12.659877,12.747911 0 0 1 0.14835,0.0259 12.659877,12.747911 0 0 1 0.14787,0.0279 12.659877,12.747911 0 0 1 0.14786,0.0294 12.659877,12.747911 0 0 1 0.14688,0.0314 12.659877,12.747911 0 0 1 0.14687,0.0333 12.659877,12.747911 0 0 1 0.14687,0.0349 12.659877,12.747911 0 0 1 0.14589,0.0364 12.659877,12.747911 0 0 1 0.14588,0.0384 12.659877,12.747911 0 0 1 0.1449,0.0404 12.659877,12.747911 0 0 1 0.1449,0.0418 12.659877,12.747911 0 0 1 0.1444,0.0434 12.659877,12.747911 0 0 1 0.14341,0.0453 12.659877,12.747911 0 0 1 0.14341,0.0468 12.659877,12.747911 0 0 1 0.14243,0.0488 12.659877,12.747911 0 0 1 0.14193,0.0503 12.659877,12.747911 0 0 1 0.14143,0.0523 12.659877,12.747911 0 0 1 0.14094,0.0538 12.659877,12.747911 0 0 1 0.13995,0.0553 12.659877,12.747911 0 0 1 0.13946,0.0572 12.659877,12.747911 0 0 1 0.13847,0.0588 12.659877,12.747911 0 0 1 0.13846,0.0608 12.659877,12.747911 0 0 1 0.13699,0.0617 12.659877,12.747911 0 0 1 0.13649,0.0637 12.659877,12.747911 0 0 1 0.13599,0.0657 12.659877,12.747911 0 0 1 0.13501,0.0668 12.659877,12.747911 0 0 1 0.13451,0.0687 12.659877,12.747911 0 0 1 0.13303,0.0702 12.659877,12.747911 0 0 1 0.13302,0.0717 12.659877,12.747911 0 0 1 0.13155,0.0737 12.659877,12.747911 0 0 1 0.13105,0.0746 12.659877,12.747911 0 0 1 0.12956,0.0768 12.659877,12.747911 0 0 1 0.12907,0.0782 12.659877,12.747911 0 0 1 0.12809,0.0797 12.659877,12.747911 0 0 1 0.12759,0.0812 12.659877,12.747911 0 0 1 0.1261,0.0827 12.659877,12.747911 0 0 1 0.12511,0.0841 12.659877,12.747911 0 0 1 0.12413,0.0857 12.659877,12.747911 0 0 1 0.12314,0.0871 12.659877,12.747911 0 0 1 0.12215,0.0886 12.659877,12.747911 0 0 1 0.12115,0.0902 12.659877,12.747911 0 0 1 0.12018,0.0911 12.659877,12.747911 0 0 1 0.11868,0.0931 12.659877,12.747911 0 0 1 0.11819,0.0947 12.659877,12.747911 0 0 1 0.11622,0.0956 12.659877,12.747911 0 0 1 0.11572,0.0971 12.659877,12.747911 0 0 1 0.11473,0.0986 12.659877,12.747911 0 0 1 0.11324,0.0996 12.659877,12.747911 0 0 1 0.11177,0.10159 12.659877,12.747911 0 0 1 0.11077,0.10258 12.659877,12.747911 0 0 1 0.10978,0.10358 12.659877,12.747911 0 0 1 0.10831,0.10557 12.659877,12.747911 0 0 1 0.10731,0.10656 12.659877,12.747911 0 0 1 0.10583,0.10757 12.659877,12.747911 0 0 1 0.10434,0.10905 12.659877,12.747911 0 0 1 0.10336,0.11005 12.659877,12.747911 0 0 1 0.10236,0.11154 12.659877,12.747911 0 0 1 0.10039,0.11304 12.659877,12.747911 0 0 1 0.0994,0.11403 12.659877,12.747911 0 0 1 0.0979,0.11504 12.659877,12.747911 0 0 1 0.0964,0.11602 12.659877,12.747911 0 0 1 0.0954,0.11752 12.659877,12.747911 0 0 1 0.094,0.11851 12.659877,12.747911 0 0 1 0.0925,0.11952 12.659877,12.747911 0 0 1 0.091,0.12101 12.659877,12.747911 0 0 1 0.0895,0.122 12.659877,12.747911 0 0 1 0.088,0.1225 12.659877,12.747911 0 0 1 0.0865,0.12399 12.659877,12.747911 0 0 1 0.0855,0.12499 12.659877,12.747911 0 0 1 0.0836,0.12598 12.659877,12.747911 0 0 1 0.0821,0.12698 12.659877,12.747911 0 0 1 0.0806,0.12798 12.659877,12.747911 0 0 1 0.0796,0.12898 12.659877,12.747911 0 0 1 0.0776,0.12996 12.659877,12.747911 0 0 1 0.0762,0.13097 12.659877,12.747911 0 0 1 0.0742,0.13146 12.659877,12.747911 0 0 1 0.0732,0.13246 12.659877,12.747911 0 0 1 0.0717,0.13346 12.659877,12.747911 0 0 1 0.0697,0.13444 12.659877,12.747911 0 0 1 0.0683,0.13496 12.659877,12.747911 0 0 1 0.0667,0.13594 12.659877,12.747911 0 0 1 0.0648,0.13693 12.659877,12.747911 0 0 1 0.0638,0.13744 12.659877,12.747911 0 0 1 0.0618,0.13795 12.659877,12.747911 0 0 1 0.0603,0.13892 12.659877,12.747911 0 0 1 0.0584,0.13993 12.659877,12.747911 0 0 1 0.0569,0.14043 12.659877,12.747911 0 0 1 0.0554,0.14092 12.659877,12.747911 0 0 1 0.0534,0.14142 12.659877,12.747911 0 0 1 0.0519,0.14243 12.659877,12.747911 0 0 1 0.0499,0.14291 12.659877,12.747911 0 0 1 0.049,0.14341 12.659877,12.747911 0 0 1 0.0465,0.14441 12.659877,12.747911 0 0 1 0.045,0.14441 12.659877,12.747911 0 0 1 0.0435,0.14541 12.659877,12.747911 0 0 1 0.0415,0.14541 12.659877,12.747911 0 0 1 0.0401,0.14639 12.659877,12.747911 0 0 1 0.0386,0.14641 12.659877,12.747911 0 0 1 0.0361,0.1474 12.659877,12.747911 0 0 1 0.0351,0.1474 12.659877,12.747911 0 0 1 0.0326,0.14788 12.659877,12.747911 0 0 1 0.0316,0.1484 12.659877,12.747911 0 0 1 0.0292,0.1484 12.659877,12.747911 0 0 1 0.0277,0.1489 12.659877,12.747911 0 0 1 0.0262,0.14938 12.659877,12.747911 0 0 1 0.0242,0.14988 12.659877,12.747911 0 0 1 0.0223,0.14989 12.659877,12.747911 0 0 1 0.0208,0.14989 12.659877,12.747911 0 0 1 0.0188,0.15038 12.659877,12.747911 0 0 1 0.0173,0.15089 12.659877,12.747911 0 0 1 0.0154,0.15089 12.659877,12.747911 0 0 1 0.0133,0.15088 12.659877,12.747911 0 0 1 0.0119,0.15088 12.659877,12.747911 0 0 1 0.01,0.15138 12.659877,12.747911 0 0 1 0.008,0.15138 12.659877,12.747911 0 0 1 0.006,0.15138 12.659877,12.747911 0 0 1 0.005,0.15138 12.659877,12.747911 0 0 1 0.003,0.15189 12.659877,12.747911 0 0 1 0.001,0.15138 12.659877,12.747911 0 0 1 0,0.0134 12.659877,12.747911 0 0 1 -0.001,0.15139 12.659877,12.747911 0 0 1 -0.002,0.15187 12.659877,12.747911 0 0 1 -0.004,0.15139 12.659877,12.747911 0 0 1 -0.006,0.15137 12.659877,12.747911 0 0 1 -0.008,0.15139 12.659877,12.747911 0 0 1 -0.01,0.15138 12.659877,12.747911 0 0 1 -0.0114,0.15137 12.659877,12.747911 0 0 1 -0.0133,0.15089 12.659877,12.747911 0 0 1 -0.0153,0.15089 12.659877,12.747911 0 0 1 -0.0173,0.15039 12.659877,12.747911 0 0 1 -0.0183,0.15038 12.659877,12.747911 0 0 1 -0.0208,0.15039 12.659877,12.747911 0 0 1 -0.0223,0.14989 12.659877,12.747911 0 0 1 -0.0242,0.14938 12.659877,12.747911 0 0 1 -0.0257,0.1494 12.659877,12.747911 0 0 1 -0.0277,0.14938 12.659877,12.747911 0 0 1 -0.0292,0.14839 12.659877,12.747911 0 0 1 -0.0312,0.1484 12.659877,12.747911 0 0 1 -0.0326,0.1479 12.659877,12.747911 0 0 1 -0.0346,0.14739 12.659877,12.747911 0 0 1 -0.0366,0.1473 12.659877,12.747911 0 0 1 -0.0381,0.14641 12.659877,12.747911 0 0 1 -0.0396,0.1464 12.659877,12.747911 0 0 1 -0.0416,0.14591 12.659877,12.747911 0 0 1 -0.0435,0.1449 12.659877,12.747911 0 0 1 -0.045,0.14491 12.659877,12.747911 0 0 1 -0.0465,0.14392 12.659877,12.747911 0 0 1 -0.0485,0.1439 12.659877,12.747911 0 0 1 -0.0499,0.14292 12.659877,12.747911 0 0 1 -0.0519,0.14242 12.659877,12.747911 0 0 1 -0.0534,0.14143 12.659877,12.747911 0 0 1 -0.0549,0.14142 12.659877,12.747911 0 0 1 -0.0569,0.13992 12.659877,12.747911 0 0 1 -0.0584,0.13993 12.659877,12.747911 0 0 1 -0.0598,0.13893 12.659877,12.747911 0 0 1 -0.0618,0.13844 12.659877,12.747911 0 0 1 -0.0633,0.13744 12.659877,12.747911 0 0 1 -0.0648,0.13694 12.659877,12.747911 0 0 1 -0.0668,0.13594 12.659877,12.747911 0 0 1 -0.0682,0.13495 12.659877,12.747911 0 0 1 -0.0697,0.13445 12.659877,12.747911 0 0 1 -0.0712,0.13346 12.659877,12.747911 0 0 1 -0.0727,0.13295 12.659877,12.747911 0 0 1 -0.0747,0.13146 12.659877,12.747911 0 0 1 -0.0762,0.13098 12.659877,12.747911 0 0 1 -0.0776,0.12995 12.659877,12.747911 0 0 1 -0.0786,0.12898 12.659877,12.747911 0 0 1 -0.0806,0.12797 12.659877,12.747911 0 0 1 -0.0821,0.12699 12.659877,12.747911 0 0 1 -0.0836,0.12649 12.659877,12.747911 0 0 1 -0.0851,0.12498 12.659877,12.747911 0 0 1 -0.0865,0.12399 12.659877,12.747911 0 0 1 -0.088,0.123 12.659877,12.747911 0 0 1 -0.0895,0.12201 12.659877,12.747911 0 0 1 -0.091,0.1205 12.659877,12.747911 0 0 1 -0.0925,0.12001 12.659877,12.747911 0 0 1 -0.0935,0.11851 12.659877,12.747911 0 0 1 -0.0954,0.11753 12.659877,12.747911 0 0 1 -0.0964,0.11652 12.659877,12.747911 0 0 1 -0.0979,0.11503 12.659877,12.747911 0 0 1 -0.0989,0.11403 12.659877,12.747911 0 0 1 -0.10088,0.11304 12.659877,12.747911 0 0 1 -0.10188,0.11154 12.659877,12.747911 0 0 1 -0.10286,0.11055 12.659877,12.747911 0 0 1 -0.10434,0.10906 12.659877,12.747911 0 0 1 -0.10583,0.10757 12.659877,12.747911 0 0 1 -0.10731,0.10705 12.659877,12.747911 0 0 1 -0.10831,0.10507 12.659877,12.747911 0 0 1 -0.10929,0.10407 12.659877,12.747911 0 0 1 -0.11077,0.10259 12.659877,12.747911 0 0 1 -0.11226,0.10158 12.659877,12.747911 0 0 1 -0.11275,0.10009 12.659877,12.747911 0 0 1 -0.11423,0.0986 12.659877,12.747911 0 0 1 -0.11572,0.0971 12.659877,12.747911 0 0 1 -0.11671,0.0961 12.659877,12.747911 0 0 1 -0.1177,0.0942 12.659877,12.747911 0 0 1 -0.11869,0.0931 12.659877,12.747911 0 0 1 -0.12017,0.0917 12.659877,12.747911 0 0 1 -0.12066,0.09 12.659877,12.747911 0 0 1 -0.12215,0.0892 12.659877,12.747911 0 0 1 -0.12314,0.0871 12.659877,12.747911 0 0 1 -0.12412,0.0856 12.659877,12.747911 0 0 1 -0.12512,0.0847 12.659877,12.747911 0 0 1 -0.1261,0.0827 12.659877,12.747911 0 0 1 -0.12709,0.0812 12.659877,12.747911 0 0 1 -0.12809,0.0797 12.659877,12.747911 0 0 1 -0.12907,0.0782 12.659877,12.747911 0 0 1 -0.12956,0.0768 12.659877,12.747911 0 0 1 -0.13105,0.0751 12.659877,12.747911 0 0 1 -0.13155,0.0737 12.659877,12.747911 0 0 1 -0.13253,0.0717 12.659877,12.747911 0 0 1 -0.13352,0.0707 12.659877,12.747911 0 0 1 -0.13402,0.0687 12.659877,12.747911 0 0 1 -0.135,0.0673 12.659877,12.747911 0 0 1 -0.13551,0.0653 12.659877,12.747911 0 0 1 -0.13649,0.0638 12.659877,12.747911 0 0 1 -0.13747,0.0622 12.659877,12.747911 0 0 1 -0.13798,0.0607 12.659877,12.747911 0 0 1 -0.13896,0.0592 12.659877,12.747911 0 0 1 -0.13896,0.0572 12.659877,12.747911 0 0 1 -0.14045,0.0553 12.659877,12.747911 0 0 1 -0.14044,0.0543 12.659877,12.747911 0 0 1 -0.14144,0.0523 12.659877,12.747911 0 0 1 -0.14192,0.0503 12.659877,12.747911 0 0 1 -0.14243,0.0488 12.659877,12.747911 0 0 1 -0.14292,0.0473 12.659877,12.747911 0 0 1 -0.1439,0.0453 12.659877,12.747911 0 0 1 -0.14391,0.0438 12.659877,12.747911 0 0 1 -0.1449,0.0418 12.659877,12.747911 0 0 1 -0.14489,0.0404 12.659877,12.747911 0 0 1 -0.14589,0.0384 12.659877,12.747911 0 0 1 -0.14588,0.0369 12.659877,12.747911 0 0 1 -0.14638,0.0349 12.659877,12.747911 0 0 1 -0.14737,0.0333 12.659877,12.747911 0 0 1 -0.14688,0.0313 12.659877,12.747911 0 0 1 -0.14786,0.0299 12.659877,12.747911 0 0 1 -0.14786,0.0279 12.659877,12.747911 0 0 1 -0.14836,0.0264 12.659877,12.747911 0 0 1 -0.14836,0.0244 12.659877,12.747911 0 0 1 -0.14885,0.0225 12.659877,12.747911 0 0 1 -0.14935,0.021 12.659877,12.747911 0 0 1 -0.14935,0.0189 12.659877,12.747911 0 0 1 -0.14934,0.0174 12.659877,12.747911 0 0 1 -0.14984,0.0154 12.659877,12.747911 0 0 1 -0.15034,0.0134 12.659877,12.747911 0 0 1 -0.14984,0.012 12.659877,12.747911 0 0 1 -0.15034,0.01 12.659877,12.747911 0 0 1 -0.15033,0.009 12.659877,12.747911 0 0 1 -0.15034,0.007 12.659877,12.747911 0 0 1 -0.15034,0.005 12.659877,12.747911 0 0 1 -0.15083,0.003 12.659877,12.747911 0 0 1 -0.15033,9.6e-4 12.659877,12.747911 0 0 1 -0.0134,0 12.659877,12.747911 0 0 1 -0.15034,-9.6e-4 12.659877,12.747911 0 0 1 -0.15083,-0.003 12.659877,12.747911 0 0 1 -0.15033,-0.005 12.659877,12.747911 0 0 1 -0.15034,-0.007 12.659877,12.747911 0 0 1 -0.15034,-0.008 12.659877,12.747911 0 0 1 -0.15033,-0.01 12.659877,12.747911 0 0 1 -0.14984,-0.012 12.659877,12.747911 0 0 1 -0.15034,-0.0134 12.659877,12.747911 0 0 1 -0.14935,-0.0154 12.659877,12.747911 0 0 1 -0.14984,-0.0169 12.659877,12.747911 0 0 1 -0.14935,-0.0189 12.659877,12.747911 0 0 1 -0.14934,-0.0205 12.659877,12.747911 0 0 1 -0.14886,-0.0225 12.659877,12.747911 0 0 1 -0.14835,-0.0244 12.659877,12.747911 0 0 1 -0.14836,-0.0259 12.659877,12.747911 0 0 1 -0.14786,-0.0279 12.659877,12.747911 0 0 1 -0.14787,-0.0294 12.659877,12.747911 0 0 1 -0.14737,-0.0313 12.659877,12.747911 0 0 1 -0.14687,-0.0333 12.659877,12.747911 0 0 1 -0.14638,-0.0349 12.659877,12.747911 0 0 1 -0.14638,-0.0364 12.659877,12.747911 0 0 1 -0.14539,-0.0384 12.659877,12.747911 0 0 1 -0.14539,-0.0404 12.659877,12.747911 0 0 1 -0.1444,-0.0418 12.659877,12.747911 0 0 1 -0.14441,-0.0434 12.659877,12.747911 0 0 1 -0.1439,-0.0453 12.659877,12.747911 0 0 1 -0.14292,-0.0468 12.659877,12.747911 0 0 1 -0.14242,-0.0488 12.659877,12.747911 0 0 1 -0.14193,-0.0503 12.659877,12.747911 0 0 1 -0.14144,-0.0523 12.659877,12.747911 0 0 1 -0.14094,-0.0538 12.659877,12.747911 0 0 1 -0.13995,-0.0553 12.659877,12.747911 0 0 1 -0.13945,-0.0572 12.659877,12.747911 0 0 1 -0.13897,-0.0588 12.659877,12.747911 0 0 1 -0.13797,-0.0607 12.659877,12.747911 0 0 1 -0.13748,-0.0618 12.659877,12.747911 0 0 1 -0.13649,-0.0637 12.659877,12.747911 0 0 1 -0.13599,-0.0657 12.659877,12.747911 0 0 1 -0.13501,-0.0667 12.659877,12.747911 0 0 1 -0.13402,-0.0687 12.659877,12.747911 0 0 1 -0.13352,-0.0703 12.659877,12.747911 0 0 1 -0.13253,-0.0717 12.659877,12.747911 0 0 1 -0.13154,-0.0737 12.659877,12.747911 0 0 1 -0.13105,-0.0747 12.659877,12.747911 0 0 1 -0.13006,-0.0767 12.659877,12.747911 0 0 1 -0.12912,-0.0783 12.659877,12.747911 0 0 1 -0.12808,-0.0797 12.659877,12.747911 0 0 1 -0.1271,-0.0812 12.659877,12.747911 0 0 1 -0.1261,-0.0827 12.659877,12.747911 0 0 1 -0.12511,-0.0841 12.659877,12.747911 0 0 1 -0.12463,-0.0856 12.659877,12.747911 0 0 1 -0.12313,-0.0871 12.659877,12.747911 0 0 1 -0.12215,-0.0886 12.659877,12.747911 0 0 1 -0.12066,-0.0901 12.659877,12.747911 0 0 1 -0.12018,-0.0911 12.659877,12.747911 0 0 1 -0.11918,-0.0931 12.659877,12.747911 0 0 1 -0.11769,-0.0947 12.659877,12.747911 0 0 1 -0.11671,-0.0956 12.659877,12.747911 0 0 1 -0.11572,-0.0971 12.659877,12.747911 0 0 1 -0.11424,-0.0986 12.659877,12.747911 0 0 1 -0.11324,-0.1001 12.659877,12.747911 0 0 1 -0.11226,-0.10108 12.659877,12.747911 0 0 1 -0.11077,-0.10259 12.659877,12.747911 0 0 1 -0.10929,-0.10407 12.659877,12.747911 0 0 1 -0.1088,-0.10507 12.659877,12.747911 0 0 1 -0.10682,-0.10656 12.659877,12.747911 0 0 1 -0.10583,-0.10757 12.659877,12.747911 0 0 1 -0.10484,-0.10905 12.659877,12.747911 0 0 1 -0.10335,-0.11055 12.659877,12.747911 0 0 1 -0.10187,-0.11104 12.659877,12.747911 0 0 1 -0.10089,-0.11304 12.659877,12.747911 0 0 1 -0.0989,-0.11403 12.659877,12.747911 0 0 1 -0.0979,-0.11503 12.659877,12.747911 0 0 1 -0.0969,-0.11603 12.659877,12.747911 0 0 1 -0.095,-0.11752 12.659877,12.747911 0 0 1 -0.094,-0.11852 12.659877,12.747911 0 0 1 -0.0925,-0.11951 12.659877,12.747911 0 0 1 -0.091,-0.121 12.659877,12.747911 0 0 1 -0.0895,-0.12201 12.659877,12.747911 0 0 1 -0.088,-0.12249 12.659877,12.747911 0 0 1 -0.087,-0.124 12.659877,12.747911 0 0 1 -0.0851,-0.12499 12.659877,12.747911 0 0 1 -0.0836,-0.12599 12.659877,12.747911 0 0 1 -0.0826,-0.12697 12.659877,12.747911 0 0 1 -0.0806,-0.12798 12.659877,12.747911 0 0 1 -0.0791,-0.12898 12.659877,12.747911 0 0 1 -0.0776,-0.12996 12.659877,12.747911 0 0 1 -0.0762,-0.13097 12.659877,12.747911 0 0 1 -0.0747,-0.13146 12.659877,12.747911 0 0 1 -0.0732,-0.13246 12.659877,12.747911 0 0 1 -0.0712,-0.13346 12.659877,12.747911 0 0 1 -0.0697,-0.13445 12.659877,12.747911 0 0 1 -0.0682,-0.13495 12.659877,12.747911 0 0 1 -0.0668,-0.13594 12.659877,12.747911 0 0 1 -0.0653,-0.13693 12.659877,12.747911 0 0 1 -0.0633,-0.13744 12.659877,12.747911 0 0 1 -0.0618,-0.13794 12.659877,12.747911 0 0 1 -0.0603,-0.13894 12.659877,12.747911 0 0 1 -0.0584,-0.13993 12.659877,12.747911 0 0 1 -0.0569,-0.14042 12.659877,12.747911 0 0 1 -0.0554,-0.14092 12.659877,12.747911 0 0 1 -0.0534,-0.14142 12.659877,12.747911 0 0 1 -0.0519,-0.14243 12.659877,12.747911 0 0 1 -0.0505,-0.14291 12.659877,12.747911 0 0 1 -0.0485,-0.14342 12.659877,12.747911 0 0 1 -0.047,-0.1444 12.659877,12.747911 0 0 1 -0.045,-0.14441 12.659877,12.747911 0 0 1 -0.0435,-0.14541 12.659877,12.747911 0 0 1 -0.0415,-0.14541 12.659877,12.747911 0 0 1 -0.0401,-0.1464 12.659877,12.747911 0 0 1 -0.0381,-0.1464 12.659877,12.747911 0 0 1 -0.0366,-0.1474 12.659877,12.747911 0 0 1 -0.0346,-0.14739 12.659877,12.747911 0 0 1 -0.0331,-0.1479 12.659877,12.747911 0 0 1 -0.0312,-0.14839 12.659877,12.747911 0 0 1 -0.0297,-0.1484 12.659877,12.747911 0 0 1 -0.0277,-0.1489 12.659877,12.747911 0 0 1 -0.0257,-0.14938 12.659877,12.747911 0 0 1 -0.0242,-0.14988 12.659877,12.747911 0 0 1 -0.0228,-0.1499 12.659877,12.747911 0 0 1 -0.0208,-0.14988 12.659877,12.747911 0 0 1 -0.0188,-0.15039 12.659877,12.747911 0 0 1 -0.0168,-0.15088 12.659877,12.747911 0 0 1 -0.0153,-0.15089 12.659877,12.747911 0 0 1 -0.0139,-0.15088 12.659877,12.747911 0 0 1 -0.0119,-0.15088 12.659877,12.747911 0 0 1 -0.01,-0.15138 12.659877,12.747911 0 0 1 -0.008,-0.15138 12.659877,12.747911 0 0 1 -0.006,-0.15138 12.659877,12.747911 0 0 1 -0.005,-0.15189 12.659877,12.747911 0 0 1 -0.003,-0.15137 12.659877,12.747911 0 0 1 -9.6e-4,-0.15139 12.659877,12.747911 0 0 1 0,-0.0134 12.659877,12.747911 0 0 1 9.6e-4,-0.15138 12.659877,12.747911 0 0 1 0.003,-0.15187 12.659877,12.747911 0 0 1 0.004,-0.15139 12.659877,12.747911 0 0 1 0.006,-0.15137 12.659877,12.747911 0 0 1 0.008,-0.15139 12.659877,12.747911 0 0 1 0.009,-0.15138 12.659877,12.747911 0 0 1 0.0119,-0.15138 12.659877,12.747911 0 0 1 0.0134,-0.15088 12.659877,12.747911 0 0 1 0.0153,-0.15089 12.659877,12.747911 0 0 1 0.0168,-0.15038 12.659877,12.747911 0 0 1 0.0188,-0.15039 12.659877,12.747911 0 0 1 0.0208,-0.15039 12.659877,12.747911 0 0 1 0.0222,-0.14989 12.659877,12.747911 0 0 1 0.0237,-0.14938 12.659877,12.747911 0 0 1 0.0257,-0.14939 12.659877,12.747911 0 0 1 0.0277,-0.14939 12.659877,12.747911 0 0 1 0.0297,-0.14839 12.659877,12.747911 0 0 1 0.0312,-0.14839 12.659877,12.747911 0 0 1 0.0326,-0.1479 12.659877,12.747911 0 0 1 0.0346,-0.14789 12.659877,12.747911 0 0 1 0.0361,-0.14691 12.659877,12.747911 0 0 1 0.0381,-0.14689 12.659877,12.747911 0 0 1 0.0401,-0.14592 12.659877,12.747911 0 0 1 0.0415,-0.1459 12.659877,12.747911 0 0 1 0.043,-0.14491 12.659877,12.747911 0 0 1 0.045,-0.1449 12.659877,12.747911 0 0 1 0.047,-0.14392 12.659877,12.747911 0 0 1 0.048,-0.14391 12.659877,12.747911 0 0 1 0.0504,-0.14291 12.659877,12.747911 0 0 1 0.0514,-0.14242 12.659877,12.747911 0 0 1 0.0534,-0.14142 12.659877,12.747911 0 0 1 0.0554,-0.14143 12.659877,12.747911 0 0 1 0.0564,-0.14043 12.659877,12.747911 0 0 1 0.0589,-0.13942 12.659877,12.747911 0 0 1 0.0598,-0.13893 12.659877,12.747911 0 0 1 0.0618,-0.13844 12.659877,12.747911 0 0 1 0.0633,-0.13744 12.659877,12.747911 0 0 1 0.0648,-0.13694 12.659877,12.747911 0 0 1 0.0668,-0.13595 12.659877,12.747911 0 0 1 0.0678,-0.13494 12.659877,12.747911 0 0 1 0.0697,-0.13446 12.659877,12.747911 0 0 1 0.0717,-0.13345 12.659877,12.747911 0 0 1 0.0727,-0.13296 12.659877,12.747911 0 0 1 0.0747,-0.13145 12.659877,12.747911 0 0 1 0.0757,-0.13097 12.659877,12.747911 0 0 1 0.0776,-0.12997 12.659877,12.747911 0 0 1 0.0791,-0.12897 12.659877,12.747911 0 0 1 0.0806,-0.12798 12.659877,12.747911 0 0 1 0.0821,-0.12698 12.659877,12.747911 0 0 1 0.0836,-0.12648 12.659877,12.747911 0 0 1 0.0851,-0.125 12.659877,12.747911 0 0 1 0.0865,-0.12399 12.659877,12.747911 0 0 1 0.088,-0.123 12.659877,12.747911 0 0 1 0.0895,-0.122 12.659877,12.747911 0 0 1 0.091,-0.12101 12.659877,12.747911 0 0 1 0.092,-0.1195 12.659877,12.747911 0 0 1 0.094,-0.11853 12.659877,12.747911 0 0 1 0.095,-0.11751 12.659877,12.747911 0 0 1 0.0964,-0.11653 12.659877,12.747911 0 0 1 0.0979,-0.11502 12.659877,12.747911 0 0 1 0.0994,-0.11404 12.659877,12.747911 0 0 1 0.10039,-0.11304 12.659877,12.747911 0 0 1 0.10188,-0.11154 12.659877,12.747911 0 0 1 0.10335,-0.11055 12.659877,12.747911 0 0 1 0.10435,-0.10905 12.659877,12.747911 0 0 1 0.10583,-0.10806 12.659877,12.747911 0 0 1 0.10681,-0.10657 12.659877,12.747911 0 0 1 0.10831,-0.10507 12.659877,12.747911 0 0 1 0.10978,-0.10407 12.659877,12.747911 0 0 1 0.11077,-0.10258 12.659877,12.747911 0 0 1 0.11177,-0.10158 12.659877,12.747911 0 0 1 0.11324,-0.1001 12.659877,12.747911 0 0 1 0.11424,-0.0986 12.659877,12.747911 0 0 1 0.11522,-0.0971 12.659877,12.747911 0 0 1 0.11671,-0.0961 12.659877,12.747911 0 0 1 0.1177,-0.0942 12.659877,12.747911 0 0 1 0.11918,-0.0931 12.659877,12.747911 0 0 1 0.11968,-0.0917 12.659877,12.747911 0 0 1 0.12115,-0.0907 12.659877,12.747911 0 0 1 0.12215,-0.0886 12.659877,12.747911 0 0 1 0.12314,-0.0871 12.659877,12.747911 0 0 1 0.12412,-0.0856 12.659877,12.747911 0 0 1 0.12512,-0.0847 12.659877,12.747911 0 0 1 0.1261,-0.0827 12.659877,12.747911 0 0 1 0.1271,-0.0812 12.659877,12.747911 0 0 1 0.12758,-0.0797 12.659877,12.747911 0 0 1 0.12907,-0.0782 12.659877,12.747911 0 0 1 0.13006,-0.0768 12.659877,12.747911 0 0 1 0.13056,-0.0751 12.659877,12.747911 0 0 1 0.13204,-0.0737 12.659877,12.747911 0 0 1 0.13204,-0.0717 12.659877,12.747911 0 0 1 0.13352,-0.0707 12.659877,12.747911 0 0 1 0.13402,-0.0687 12.659877,12.747911 0 0 1 0.135,-0.0673 12.659877,12.747911 0 0 1 0.136,-0.0653 12.659877,12.747911 0 0 1 0.13649,-0.0643 12.659877,12.747911 0 0 1 0.13747,-0.0623 12.659877,12.747911 0 0 1 0.13798,-0.0602 12.659877,12.747911 0 0 1 0.13846,-0.0592 12.659877,12.747911 0 0 1 0.13946,-0.0572 12.659877,12.747911 0 0 1 0.13995,-0.0552 12.659877,12.747911 0 0 1 0.14094,-0.0543 12.659877,12.747911 0 0 1 0.14094,-0.0523 12.659877,12.747911 0 0 1 0.14193,-0.0503 12.659877,12.747911 0 0 1 0.14292,-0.0488 12.659877,12.747911 0 0 1 0.14292,-0.0473 12.659877,12.747911 0 0 1 0.14341,-0.0453 12.659877,12.747911 0 0 1 0.1444,-0.0438 12.659877,12.747911 0 0 1 0.1449,-0.0418 12.659877,12.747911 0 0 1 0.14489,-0.0404 12.659877,12.747911 0 0 1 0.14539,-0.0384 12.659877,12.747911 0 0 1 0.14638,-0.0369 12.659877,12.747911 0 0 1 0.14639,-0.0349 12.659877,12.747911 0 0 1 0.14687,-0.0333 12.659877,12.747911 0 0 1 0.14737,-0.0313 12.659877,12.747911 0 0 1 0.14737,-0.0299 12.659877,12.747911 0 0 1 0.14835,-0.0279 12.659877,12.747911 0 0 1 0.14787,-0.0264 12.659877,12.747911 0 0 1 0.14885,-0.0244 12.659877,12.747911 0 0 1 0.14885,-0.0224 12.659877,12.747911 0 0 1 0.14935,-0.0209 12.659877,12.747911 0 0 1 0.14935,-0.0189 12.659877,12.747911 0 0 1 0.14934,-0.0174 12.659877,12.747911 0 0 1 0.14985,-0.0154 12.659877,12.747911 0 0 1 0.14984,-0.0134 12.659877,12.747911 0 0 1 0.15033,-0.012 12.659877,12.747911 0 0 1 0.14985,-0.01 12.659877,12.747911 0 0 1 0.15033,-0.009 12.659877,12.747911 0 0 1 0.15034,-0.007 12.659877,12.747911 0 0 1 0.15083,-0.005 12.659877,12.747911 0 0 1 0.15033,-0.003 12.659877,12.747911 0 0 1 0.15083,-9.6e-4 z"
             inkscape:connector-curvature="0" />
          <path
             style="fill:#fffffa;fill-opacity:1;stroke:#f7fff9;stroke-width:0.14103803;stroke-miterlimit:4;stroke-dasharray:none;stroke-opacity:1"
             d="m 128.98923,151.75203 a 9.7482224,9.7482224 0 0 1 -9.74822,9.74822 9.7482224,9.7482224 0 0 1 -9.74822,-9.74822 9.7482224,9.7482224 0 0 1 9.74822,-9.74822 9.7482224,9.7482224 0 0 1 9.74822,9.74822 z"
             id="path1443-17-0-2-2"
             inkscape:connector-curvature="0" />
          <path
             style="fill:#ffe900;fill-opacity:1;stroke:#fffff9;stroke-width:0;stroke-miterlimit:4;stroke-dasharray:none;stroke-opacity:1"
             d="m 128.91673,151.72189 a 9.5853672,9.7058306 0 0 1 -9.58537,9.70583 9.5853672,9.7058306 0 0 1 -9.58537,-9.70583 9.5853672,9.7058306 0 0 1 9.58537,-9.70583 9.5853672,9.7058306 0 0 1 9.58537,9.70583 z"
             id="path1443-4-7-7"
             inkscape:connector-curvature="0" />
          <path
             style="fill:#000000;fill-opacity:1;stroke:#0d0701;stroke-width:0.12821646;stroke-miterlimit:4;stroke-dasharray:none;stroke-opacity:0.977778"
             d="m 128.10303,151.75203 a 8.8620205,8.8620205 0 0 1 -8.86202,8.86202 8.8620205,8.8620205 0 0 1 -8.86202,-8.86202 8.8620205,8.8620205 0 0 1 8.86202,-8.86202 8.8620205,8.8620205 0 0 1 8.86202,8.86202 z"
             id="path1443-3-8-2-2"
             inkscape:connector-curvature="0" />
        </g>
      </g>
    </g>
  </g>
</svg>
